<svg width="32" height="32" viewBox="0 0 32 32" fill="none" xmlns="http://www.w3.org/2000/svg">
<g clip-path="url(#clip0)">
<path d="M7.03046 18.064C6.67678 18.064 6.35321 18.2631 6.19371 18.5788L3.40771 24.0945H15.0627V18.064H7.03046Z" fill="black"/>
<path d="M25.8064 18.5788C25.6469 18.2631 25.3233 18.064 24.9696 18.064H16.9375V24.0945H28.5924L25.8064 18.5788Z" fill="black"/>
<path d="M31.8985 30.6399L29.5395 25.9695H16.9375V32H31.0617C31.7589 32 32.2132 31.2632 31.8985 30.6399Z" fill="black"/>
<path d="M2.46054 25.9695L0.101602 30.6399C-0.212648 31.2621 0.24004 32 0.93829 32H15.0625V25.9695H2.46054Z" fill="black"/>
<path d="M15.9998 4.81323C14.1044 4.81323 12.5625 6.35529 12.5625 8.25073C12.5625 10.1462 14.1045 11.6882 15.9998 11.6882C17.8951 11.6882 19.4371 10.1462 19.4371 8.25073C19.4371 6.35529 17.8952 4.81323 15.9998 4.81323Z" fill="#FFCE00"/>
<path d="M16 0C15.4822 0 15.0625 0.41975 15.0625 0.9375V3.00044C15.0625 3.51819 15.4822 3.93794 16 3.93794C16.5178 3.93794 16.9375 3.51819 16.9375 3.00044V0.9375C16.9375 0.41975 16.5178 0 16 0Z" fill="#FFCE00"/>
<path d="M16 12.5635C15.4822 12.5635 15.0625 12.9832 15.0625 13.501V15.5639C15.0625 16.0817 15.4822 16.5014 16 16.5014C16.5178 16.5014 16.9375 16.0817 16.9375 15.5639V13.501C16.9375 12.9832 16.5178 12.5635 16 12.5635Z" fill="#FFCE00"/>
<path d="M12.9506 3.87537L11.492 2.41668C11.1259 2.05056 10.5324 2.05056 10.1662 2.41668C9.80011 2.78275 9.80005 3.37637 10.1662 3.74249L11.6247 5.20118C11.991 5.56737 12.5846 5.56724 12.9506 5.20118C13.3167 4.83506 13.3167 4.24149 12.9506 3.87537Z" fill="#FFCE00"/>
<path d="M21.8334 12.7589L20.3749 11.3002C20.0087 10.9341 19.4152 10.9341 19.049 11.3002C18.6829 11.6663 18.6829 12.2599 19.049 12.626L20.5075 14.0847C20.8739 14.4509 21.4674 14.4507 21.8334 14.0847C22.1995 13.7186 22.1995 13.125 21.8334 12.7589Z" fill="#FFCE00"/>
<path d="M10.7498 7.31323H8.68701C8.16926 7.31323 7.74951 7.73298 7.74951 8.25073C7.74951 8.76848 8.16926 9.18823 8.68701 9.18823H10.7498C11.2676 9.18823 11.6873 8.76848 11.6873 8.25073C11.6873 7.73298 11.2676 7.31323 10.7498 7.31323Z" fill="#FFCE00"/>
<path d="M23.3128 7.31323H21.25C20.7322 7.31323 20.3125 7.73298 20.3125 8.25073C20.3125 8.76848 20.7322 9.18823 21.25 9.18823H23.3128C23.8306 9.18823 24.2503 8.76848 24.2503 8.25073C24.2503 7.73298 23.8306 7.31323 23.3128 7.31323Z" fill="#FFCE00"/>
<path d="M12.9506 11.3002C12.5844 10.9341 11.991 10.9341 11.6247 11.3002L10.1662 12.7589C9.80005 13.125 9.80011 13.7186 10.1662 14.0847C10.5324 14.4508 11.1259 14.4508 11.492 14.0847L12.9506 12.626C13.3167 12.2599 13.3167 11.6663 12.9506 11.3002Z" fill="#FFCE00"/>
<path d="M21.8334 2.41664C21.4672 2.05057 20.8738 2.05057 20.5075 2.41664L19.049 3.87532C18.6829 4.24145 18.6829 4.83501 19.049 5.20114C19.4152 5.56726 20.0087 5.5672 20.3749 5.20114L21.8334 3.74245C22.1995 3.37632 22.1995 2.7827 21.8334 2.41664Z" fill="#FFCE00"/>
</g>
<defs>
<clipPath id="clip0">
<rect width="32" height="32" fill="white"/>
</clipPath>
</defs>
</svg>
