<svg width="1109" height="546" viewBox="0 0 1109 546" fill="none" xmlns="http://www.w3.org/2000/svg">
<mask id="mask0" mask-type="alpha" maskUnits="userSpaceOnUse" x="0" y="0" width="1109" height="546">
<rect width="1109" height="546" rx="16" fill="#C4C4C4"/>
</mask>
<g mask="url(#mask0)">
<rect width="1109" height="547.372" rx="16" fill="#FCFCFC"/>
<path d="M887.099 206.245C769.389 312.148 607.171 188.394 478.61 272.204C411.72 315.811 398.155 355.16 350.155 420.21C319.367 461.933 316.433 469.197 287.212 499.039C257.99 528.881 205 563.389 205 563.389V672.785H1588.47V-55.9827H1258.34C1258.34 -55.9827 1082.01 -59.4229 997.571 30.8903C946.214 85.8197 947.356 152.032 887.099 206.245Z" fill="#C3E7CD"/>
<path d="M905.099 241.28C787.389 347.183 625.171 196.08 496.61 279.89C429.72 323.497 394.703 478.036 375.22 523.706C364.545 548.732 348.244 571.254 321.768 588.772C295.292 606.289 223 598.424 223 598.424V707.82H1606.47V24.8126H1296.89C1296.89 24.8126 1079.8 16.0538 1009.15 78.7954C947.49 133.552 965.356 187.067 905.099 241.28Z" fill="#22C680"/>
</g>
</svg>
