<svg width="80" height="80" viewBox="0 0 80 80" fill="none" xmlns="http://www.w3.org/2000/svg">
<path d="M61.1819 18.7556C55.5162 13.0892 47.9818 9.96875 39.9688 9.96875C31.9557 9.96875 24.4213 13.0892 18.7556 18.7556C13.0892 24.4213 9.96875 31.9557 9.96875 39.9688C9.96875 47.9818 13.0892 55.5162 18.7556 61.1819C24.4213 66.8483 31.9557 69.9688 39.9688 69.9688C47.9818 69.9688 55.5162 66.8483 61.1819 61.1819C66.8483 55.5162 69.9688 47.9818 69.9688 39.9688C69.9688 31.9557 66.8483 24.4213 61.1819 18.7556ZM39.9688 64.1823C26.6174 64.1823 15.7552 53.3201 15.7552 39.9688C15.7552 26.6174 26.6174 15.7552 39.9688 15.7552C53.3201 15.7552 64.1823 26.6174 64.1823 39.9688C64.1823 53.3201 53.3201 64.1823 39.9688 64.1823Z" fill="black"/>
<path d="M54.8678 39.9688C54.8678 38.9983 55.6552 38.2109 56.6256 38.2109H60.5913C60.2207 33.8245 58.4772 29.824 55.7925 26.6423L53.0012 29.4336C52.3142 30.1191 51.2009 30.1191 50.5139 29.4336C49.8287 28.7466 49.8287 27.6333 50.5139 26.9467L53.3066 24.1543C50.1228 21.4648 46.1172 19.7166 41.7263 19.3459V23.3116C41.7263 24.2821 40.939 25.0695 39.9685 25.0695C38.998 25.0695 38.2107 24.2821 38.2107 23.3116V19.3459C33.8242 19.7166 29.8248 21.4601 26.6421 24.1448L29.444 26.9467C30.1306 27.6333 30.1306 28.7466 29.444 29.4336C29.1008 29.7756 28.6508 29.9478 28.2003 29.9478C27.7502 29.9478 27.3005 29.7771 26.9585 29.4336L24.1552 26.6306C21.4646 29.8145 19.7163 33.8201 19.3457 38.2109H23.3114C24.2819 38.2109 25.0692 38.9983 25.0692 39.9688C25.0692 40.9392 24.2819 41.7266 23.3114 41.7266H19.3457C19.7163 46.1174 21.4646 50.123 24.1552 53.3069L26.9585 50.5039C27.6437 49.8169 28.757 49.8169 29.444 50.5039C30.1306 51.1909 30.1306 52.3042 29.444 52.9908L26.6421 55.7927C29.8248 58.4774 33.8242 60.2209 38.2107 60.5916V56.6259C38.2107 55.6554 38.998 54.868 39.9685 54.868C40.939 54.868 41.7263 55.6554 41.7263 56.6259V60.5916C46.1172 60.2209 50.1228 58.4727 53.3066 55.7821L50.5154 52.9908C49.8287 52.3042 49.8287 51.1909 50.5154 50.5039C51.2009 49.8169 52.3142 49.8184 53.0012 50.5039L55.7925 53.2952C58.4772 50.1124 60.2207 46.113 60.5913 41.7266H56.6256C55.6552 41.7266 54.8678 40.9392 54.8678 39.9688ZM45.6964 45.6831C45.3533 46.0273 44.9032 46.1998 44.4524 46.1998C44.0034 46.1998 43.5544 46.0288 43.2113 45.686L38.7695 41.2556C38.4088 40.8956 38.2107 40.4174 38.2107 39.9087V29.2637C38.2107 28.2936 38.998 27.5059 39.9685 27.5059C40.939 27.5059 41.7263 28.2936 41.7263 29.2637V39.24L45.6942 43.1973C46.3809 43.8828 46.3823 44.9961 45.6964 45.6831Z" fill="#22C680"/>
</svg>
