<svg width="224" height="32" viewBox="0 0 224 32" fill="none" xmlns="http://www.w3.org/2000/svg">
<path d="M31.9999 14.6885H12.5901V19.9344H31.9999V14.6885Z" fill="black"/>
<path d="M31.2997 22.8503C28.8868 28.5808 22.2558 32 16.232 32C16.097 32 15.9367 32 15.7511 31.9984C8.28468 31.8769 0 26.5568 0 18.1294V0.286445C0 0.286445 13.642 0 16.232 0C23.0235 0 30.5826 4.34338 32 11.4453H23.8334C22.0533 8.95596 18.7545 7.24389 16.1222 7.24389C12.3258 7.24389 8.1328 10.4596 8.1328 14.7791V17.2217C8.1328 19.5017 9.30558 21.474 10.9676 22.8282V22.8503H10.9927C12.4691 24.0478 14.3421 24.7561 16.1222 24.7561C17.8264 24.7561 19.8176 24.0355 21.488 22.8503H31.2997Z" fill="#22C680"/>
<path d="M79.9999 14.6885H60.5901V19.9344H79.9999V14.6885Z" fill="black"/>
<path d="M79.2997 22.8503C76.8868 28.5808 70.2558 32 64.232 32C64.097 32 63.9367 32 63.7511 31.9984C56.2847 31.8769 48 26.5568 48 18.1294V0.286445C48 0.286445 61.642 0 64.232 0C71.0235 0 78.5826 4.34338 80 11.4453H71.8334C70.0533 8.95596 66.7545 7.24389 64.1222 7.24389C60.3258 7.24389 56.1328 10.4596 56.1328 14.7791V17.2217C56.1328 19.5017 57.3056 21.474 58.9676 22.8282V22.8503H58.9927C60.4691 24.0478 62.3421 24.7561 64.1222 24.7561C65.8264 24.7561 67.8176 24.0355 69.488 22.8503H79.2997Z" fill="#C3E7CD"/>
<path d="M128 14.6885H108.59V19.9344H128V14.6885Z" fill="black"/>
<path d="M127.3 22.8503C124.887 28.5808 118.256 32 112.232 32C112.097 32 111.937 32 111.751 31.9984C104.285 31.8769 96 26.5568 96 18.1294V0.286445C96 0.286445 109.642 0 112.232 0C119.023 0 126.583 4.34338 128 11.4453H119.833C118.053 8.95596 114.754 7.24389 112.122 7.24389C108.326 7.24389 104.133 10.4596 104.133 14.7791V17.2217C104.133 19.5017 105.306 21.474 106.968 22.8282V22.8503H106.993C108.469 24.0478 110.342 24.7561 112.122 24.7561C113.826 24.7561 115.818 24.0355 117.488 22.8503H127.3Z" fill="#C3E7CD"/>
<path d="M176 14.6885H156.59V19.9344H176V14.6885Z" fill="black"/>
<path d="M175.3 22.8503C172.887 28.5808 166.256 32 160.232 32C160.097 32 159.937 32 159.751 31.9984C152.285 31.8769 144 26.5568 144 18.1294V0.286445C144 0.286445 157.642 0 160.232 0C167.023 0 174.583 4.34338 176 11.4453H167.833C166.053 8.95596 162.754 7.24389 160.122 7.24389C156.326 7.24389 152.133 10.4596 152.133 14.7791V17.2217C152.133 19.5017 153.306 21.474 154.968 22.8282V22.8503H154.993C156.469 24.0478 158.342 24.7561 160.122 24.7561C161.826 24.7561 163.818 24.0355 165.488 22.8503H175.3Z" fill="#C3E7CD"/>
<path d="M224 14.6885H204.59V19.9344H224V14.6885Z" fill="black"/>
<path d="M223.3 22.8503C220.887 28.5808 214.256 32 208.232 32C208.097 32 207.937 32 207.751 31.9984C200.285 31.8769 192 26.5568 192 18.1294V0.286445C192 0.286445 205.642 0 208.232 0C215.023 0 222.583 4.34338 224 11.4453H215.833C214.053 8.95596 210.754 7.24389 208.122 7.24389C204.326 7.24389 200.133 10.4596 200.133 14.7791V17.2217C200.133 19.5017 201.306 21.474 202.968 22.8282V22.8503H202.993C204.469 24.0478 206.342 24.7561 208.122 24.7561C209.826 24.7561 211.818 24.0355 213.488 22.8503H223.3Z" fill="#F3F3F3"/>
</svg>
