<svg width="21" height="16" viewBox="0 0 21 16" fill="none" xmlns="http://www.w3.org/2000/svg">
<path d="M5.398 15.754C4.498 15.754 3.724 15.592 3.076 15.268C2.428 14.944 1.924 14.476 1.564 13.864C1.168 13.36 0.862 12.694 0.646 11.866C0.466 11.038 0.376 10.21 0.376 9.382C0.376 7.582 0.826 5.926 1.726 4.414C2.662 2.866 4.102 1.642 6.046 0.741997L6.532 1.714C5.524 2.146 4.624 2.812 3.832 3.712C3.04 4.612 2.572 5.53 2.428 6.466C2.248 7.258 2.248 8.014 2.428 8.734C3.22 7.87 4.264 7.438 5.56 7.438C6.82 7.438 7.846 7.816 8.638 8.572C9.43 9.292 9.826 10.3 9.826 11.596C9.826 12.856 9.394 13.864 8.53 14.62C7.702 15.376 6.658 15.754 5.398 15.754ZM16.522 15.754C15.622 15.754 14.848 15.592 14.2 15.268C13.552 14.944 13.048 14.476 12.688 13.864C12.292 13.36 11.986 12.694 11.77 11.866C11.59 11.038 11.5 10.21 11.5 9.382C11.5 7.582 11.95 5.926 12.85 4.414C13.786 2.866 15.226 1.642 17.17 0.741997L17.656 1.714C16.648 2.146 15.748 2.812 14.956 3.712C14.164 4.612 13.696 5.53 13.552 6.466C13.372 7.258 13.372 8.014 13.552 8.734C14.344 7.87 15.388 7.438 16.684 7.438C17.944 7.438 18.97 7.816 19.762 8.572C20.554 9.292 20.95 10.3 20.95 11.596C20.95 12.856 20.518 13.864 19.654 14.62C18.826 15.376 17.782 15.754 16.522 15.754Z" fill="#22C680"/>
</svg>
