<svg width="43" height="43" viewBox="0 0 43 43" fill="none" xmlns="http://www.w3.org/2000/svg">
<path d="M41.4952 19.8237C41.0947 18.5332 39.8728 17.6715 38.522 17.7257L38.2339 17.7375C37.3887 17.7719 36.5937 18.1203 35.9983 18.7158L31.5441 23.1232C31.4385 22.9621 31.3175 22.8088 31.1797 22.6658C30.5941 22.0574 29.7737 21.7087 28.9293 21.7087H22.6465C21.461 21.7087 20.3051 21.5549 19.2102 21.252C16.3585 20.4627 13.6374 21.0326 11.3411 22.8998C10.3724 23.6879 9.67606 24.5479 9.24892 25.1556C8.76519 24.8192 8.18968 24.6428 7.59277 24.6529C6.83568 24.666 6.12952 24.973 5.6047 25.5185L1.54368 29.734C1.24374 30.0453 1.2499 30.5401 1.55795 30.844L4.82374 34.0652C5.13401 34.3711 5.63423 34.3679 5.94056 34.0574C6.24639 33.7468 6.24319 33.2471 5.93268 32.9408L3.22246 30.2677L6.74193 26.6139C6.97346 26.3735 7.28521 26.2377 7.61909 26.2323C7.95618 26.2261 8.26891 26.3516 8.5088 26.5841L14.7882 32.6778C15.0276 32.9103 15.1622 33.2218 15.1669 33.5554C15.1715 33.8893 15.0458 34.2045 14.8128 34.4437L11.3543 37.9922L10.4644 37.1445C10.1485 36.8436 9.64874 36.8559 9.34783 37.1718C9.0474 37.4878 9.05971 37.9875 9.37563 38.2879L10.8305 39.6739C10.9836 39.8193 11.1794 39.8916 11.375 39.8916C11.5807 39.8916 11.7859 39.8117 11.9407 39.6532L15.9439 35.5457C16.4717 35.0044 16.7563 34.2896 16.746 33.5338C16.7411 33.1881 16.6742 32.8527 16.5516 32.5402L17.9617 32.3761C18.616 32.3001 19.2815 32.2612 19.9402 32.2612H29.4999C29.6463 32.2612 29.7944 32.2551 29.9403 32.2428L30.8564 32.1665C31.7849 32.0895 32.6798 31.7671 33.4448 31.2352C33.8203 30.9739 34.1608 30.6648 34.457 30.3162L40.8988 22.7374C41.5873 21.9277 41.8099 20.8387 41.4952 19.8237ZM39.6956 21.7146L33.2536 29.2934C33.0457 29.5379 32.8065 29.755 32.5428 29.9385C32.0056 30.3123 31.377 30.5384 30.7255 30.5928L29.8089 30.669C29.7068 30.6776 29.6025 30.6821 29.4999 30.6821H19.9402C19.2207 30.6821 18.4937 30.7241 17.7794 30.8071L15.4961 31.0728L10.4447 26.202C10.7887 25.6922 11.4208 24.8704 12.3376 24.1251C14.2474 22.5723 16.4178 22.1176 18.7889 22.7738C20.0209 23.1149 21.3188 23.2876 22.6465 23.2876H28.9293C29.3469 23.2876 29.7526 23.4603 30.0424 23.761C30.2543 23.981 30.3886 24.2506 30.444 24.5333C30.443 24.6047 30.4519 24.6758 30.4703 24.7449C30.4912 25.1152 30.3803 25.4927 30.1337 25.7995L30.1094 25.83C29.8148 26.1971 29.3756 26.408 28.9047 26.408H23.4351C22.9988 26.408 22.6455 26.7613 22.6455 27.1973C22.6455 27.6335 22.9988 27.9871 23.4351 27.9871H28.9047C29.8572 27.9871 30.7451 27.561 31.3413 26.8176L31.3657 26.7874C31.8223 26.2185 32.0487 25.5301 32.0509 24.8431L37.1116 19.8353C37.429 19.5181 37.8503 19.3334 38.2983 19.3151L38.5867 19.3036C39.2235 19.2765 39.7985 19.6837 39.987 20.2917C40.1407 20.7873 40.0317 21.3192 39.6956 21.7146Z" fill="black"/>
<path d="M7.60141 27.8975C6.42235 27.8975 5.46326 28.8568 5.46326 30.0356C5.46326 31.2149 6.42235 32.1743 7.60141 32.1743C8.78047 32.1743 9.73982 31.2149 9.73982 30.0356C9.73982 28.8568 8.78047 27.8975 7.60141 27.8975ZM7.60141 30.5949C7.29312 30.5949 7.04215 30.3442 7.04215 30.0356C7.04215 29.7276 7.29312 29.4768 7.60141 29.4768C7.90947 29.4768 8.16043 29.7276 8.16043 30.0356C8.16043 30.3442 7.90947 30.5949 7.60141 30.5949Z" fill="black"/>
<path d="M20.0799 26.5243L20.0393 26.5339C19.6149 26.6336 19.3511 27.0588 19.4513 27.4832C19.5364 27.8468 19.861 28.0924 20.2192 28.0924C20.2787 28.0924 20.3398 28.0853 20.4003 28.071L20.4411 28.0616C20.8656 27.962 21.1288 27.5368 21.0292 27.1124C20.9295 26.688 20.5046 26.4252 20.0799 26.5243Z" fill="black"/>
<path d="M7.49983 34.8811L7.45898 34.8907C7.03455 34.9906 6.77128 35.4153 6.87093 35.8397C6.95631 36.2036 7.2806 36.4489 7.63885 36.4489C7.69888 36.4489 7.75941 36.4423 7.82043 36.428L7.86103 36.4187C8.28546 36.319 8.54898 35.8938 8.44908 35.4694C8.34943 35.0447 7.92426 34.7817 7.49983 34.8811Z" fill="black"/>
<path d="M24.4326 19.669C29.0406 19.669 32.7894 15.9202 32.7894 11.3122C32.7894 6.70423 29.0406 2.9552 24.4326 2.9552C22.5424 2.9552 20.7596 3.57081 19.2766 4.73511C18.9378 5.00084 18.6172 5.29512 18.3235 5.61006C17.884 6.08075 17.4989 6.60212 17.1793 7.15893C16.4572 8.41747 16.0758 9.85389 16.0758 11.3122C16.0758 15.9202 19.8246 19.669 24.4326 19.669ZM18.5491 7.94481C18.8084 7.49282 19.1206 7.06986 19.4777 6.68775C19.7161 6.43186 19.9766 6.19319 20.2515 5.97741C21.4542 5.03357 22.8999 4.53458 24.4326 4.53458C28.1696 4.53458 31.2102 7.57475 31.2102 11.3122C31.2102 15.0494 28.1696 18.0899 24.4326 18.0899C20.6954 18.0899 17.6547 15.0494 17.6547 11.3122C17.6547 10.129 17.964 8.96468 18.5491 7.94481Z" fill="black"/>
<path d="M25.1328 14.0147C24.8144 14.2039 24.4008 14.2711 24.1203 14.2711C23.5879 14.2711 23.1211 13.6437 23.1211 12.9286C23.1211 12.4926 22.7676 12.1391 22.3316 12.1391C21.8953 12.1391 21.542 12.4926 21.542 12.9286C21.542 14.2962 22.3751 15.4467 23.4966 15.7634C23.5222 16.1765 23.8642 16.504 24.2837 16.504C24.7145 16.504 25.0642 16.1588 25.0725 15.7297C26.213 15.4337 27.1972 14.5845 27.1972 13.1006C27.1972 11.3215 25.3803 10.3508 24.4473 10.3508C24.4355 10.3508 23.2764 10.2477 23.2764 9.50636C23.2764 8.3679 24.4355 8.33591 24.4473 8.33591C24.6668 8.33591 24.9338 8.46632 25.1441 8.67669C25.2453 8.77806 25.2561 8.78864 25.2561 9.2143C25.2561 9.6503 25.6099 10.0021 26.0457 10.0021C26.4817 10.0021 26.8355 9.64735 26.8355 9.2111C26.8355 8.70646 26.8355 8.13464 26.2609 7.55988C25.9155 7.21492 25.5016 6.96936 25.0711 6.84683C25.0469 6.43224 24.7044 6.10303 24.2837 6.10303C23.8477 6.10303 23.4941 6.45684 23.4941 6.89284V6.94451C22.6315 7.26511 21.6972 8.0313 21.6972 9.50636C21.6972 11.3156 23.5778 11.9272 24.4417 11.9297C24.6789 11.9489 25.6178 12.3647 25.6178 13.1004C25.6178 13.5334 25.4684 13.8152 25.1328 14.0147Z" fill="black"/>
</svg>
