<svg width="80" height="80" viewBox="0 0 80 80" fill="none" xmlns="http://www.w3.org/2000/svg">
<path d="M46.1763 39.665C54.9062 39.665 62.0075 32.5625 62.0075 23.8325C62.0075 15.1025 54.9062 8 46.1763 8C37.4463 8 30.3438 15.1025 30.3438 23.8325C30.3438 32.5625 37.4463 39.665 46.1763 39.665ZM44.3013 14.5262V14.0963C44.3013 13.06 45.14 12.2213 46.1763 12.2213C47.2113 12.2213 48.0513 13.06 48.0513 14.0963V14.5287C50.2825 15.0075 51.9613 16.995 51.9613 19.3675C51.9613 20.4025 51.1213 21.2425 50.0863 21.2425C49.05 21.2425 48.2113 20.4025 48.2113 19.3675C48.2113 18.7063 47.6725 18.1675 47.0112 18.1675H45.33C44.6688 18.1675 44.13 18.7063 44.13 19.3675C44.13 19.7463 44.3112 20.1062 44.6162 20.3313L46.1763 21.4862L49.9663 24.2913C51.2113 25.2125 51.9613 26.6863 51.9713 28.2362V28.2537C51.98 29.5763 51.4738 30.8237 50.5438 31.765C49.8538 32.4637 48.9913 32.9325 48.0513 33.13V33.5688C48.0513 34.605 47.2113 35.4438 46.1763 35.4438C45.14 35.4438 44.3013 34.605 44.3013 33.5688V33.1362C43.3863 32.9412 42.545 32.4913 41.865 31.8188C40.9238 30.89 40.4012 29.65 40.3937 28.3275C40.3875 27.2925 41.2213 26.4475 42.2563 26.4412H42.2687C43.2987 26.4412 44.1375 27.2738 44.1437 28.305C44.1462 28.9521 44.6669 29.4975 45.35 29.4975C46.386 29.4912 46.0001 29.4935 47.0288 29.4875C47.6943 29.4822 48.2264 28.9421 48.2213 28.2787V28.2612C48.2188 27.8862 48.0375 27.5287 47.735 27.305L46.1763 26.1513L42.385 23.3462C41.13 22.4162 40.38 20.9288 40.38 19.3675C40.38 16.99 42.0638 15.0012 44.3013 14.5262Z" fill="#22C680"/>
<path d="M20.5233 48.674C20.0427 47.8408 18.9751 47.5509 18.1367 48.0345L9.31696 53.1258C8.48184 53.6091 8.19534 54.6773 8.67746 55.5135L17.6917 71.1263C18.1742 71.9611 19.2417 72.2479 20.0783 71.7658L28.8981 66.6732C29.7345 66.191 30.0198 65.1229 29.5376 64.2866L20.5233 48.674Z" fill="black"/>
<path d="M71.0594 45.5575C70.2107 44.3787 68.5682 44.1125 67.3907 44.9612C63.8182 47.535 56.9582 52.4775 56.4132 52.8712C56.162 53.085 55.8982 53.2787 55.6232 53.45C54.5445 54.1287 53.2932 54.4912 51.987 54.4912H43.0057C41.9707 54.4912 41.1307 53.6525 41.1307 52.6162C41.1307 51.5787 41.972 50.7412 43.0057 50.7412H52.6107C54.022 50.7412 55.1519 49.5662 55.0932 48.1525C55.0382 46.8112 53.8932 45.7712 52.5507 45.7712H45.2395C44.7445 45.2475 44.202 44.7675 43.6207 44.3387C41.622 42.865 39.152 41.9937 36.4782 41.9937C31.7245 41.9937 26.9945 44.9887 25.0332 48.9862L32.7032 62.27H47.0907C49.9157 62.27 52.6982 61.5475 55.147 60.1387C55.9957 59.6512 56.9045 59.065 57.8895 58.3575C62.017 55.3925 70.4557 49.2325 70.4619 49.2287C71.6419 48.3812 71.9095 46.7362 71.0594 45.5575Z" fill="black"/>
</svg>
