<svg width="72" height="72" viewBox="0 0 72 72" fill="none" xmlns="http://www.w3.org/2000/svg">
<rect width="72" height="72" rx="36" fill="#F4F5F7"/>
<g clip-path="url(#clip0)">
<path d="M45.4488 29.4485C45.4488 24.2386 41.2102 20 36.0003 20C30.7904 20 26.5518 24.2386 26.5518 29.4485C26.5518 34.6584 30.7903 38.897 36.0002 38.897C41.2102 38.897 45.4488 34.6584 45.4488 29.4485ZM32.3348 31.711H34.2097C34.2097 32.3606 34.7382 32.889 35.3878 32.889H36.5918C37.2624 32.889 37.808 32.3434 37.808 31.6729C37.808 31.0023 37.2624 30.4567 36.5918 30.4567H35.4088C33.7044 30.4567 32.3178 29.07 32.3178 27.3656C32.3178 25.7782 33.5208 24.467 35.0629 24.2944V22.7343H36.9378V24.2979C38.4675 24.4829 39.657 25.7882 39.657 27.367H37.7821C37.7821 26.6957 37.236 26.1495 36.5647 26.1495H35.4089C34.7383 26.1495 34.1927 26.695 34.1927 27.3656C34.1927 28.0362 34.7383 28.5818 35.4089 28.5818H36.5918C38.2962 28.5818 39.6829 29.9685 39.6829 31.6728C39.6829 33.2602 38.4799 34.5714 36.9378 34.744V36.3042H35.0629V34.7464C33.5317 34.5837 32.3348 33.2846 32.3348 31.711Z" fill="#FFCE00"/>
<path d="M42.2313 38.898C40.4426 40.0815 38.3004 40.7719 35.9997 40.7719C33.699 40.7719 31.5568 40.0816 29.7682 38.898V43.0017H26.5791V44.3573L35.9997 52L45.4203 44.3573V43.0017H42.2312V38.898H42.2313Z" fill="black"/>
</g>
<defs>
<clipPath id="clip0">
<rect width="32" height="32" fill="white" transform="translate(20 20)"/>
</clipPath>
</defs>
</svg>
