<svg width="72" height="72" viewBox="0 0 72 72" fill="none" xmlns="http://www.w3.org/2000/svg">
    <rect width="72" height="72" rx="36" fill="#F4F5F7"/>
    <path d="M45.897 42.4485C45.897 37.2386 41.6585 33 36.4486 33C31.2386 33 27 37.2386 27 42.4485C27 47.6584 31.2386 51.897 36.4485 51.897C41.6584 51.897 45.897 47.6584 45.897 42.4485ZM32.7831 44.711H34.658C34.658 45.3606 35.1864 45.889 35.836 45.889H37.04C37.7106 45.889 38.2562 45.3434 38.2562 44.6729C38.2562 44.0023 37.7107 43.4567 37.04 43.4567H35.8571C34.1527 43.4567 32.766 42.07 32.766 40.3656C32.766 38.7782 33.969 37.467 35.5111 37.2944V35.7343H37.386V37.2979C38.9157 37.4829 40.1053 38.7882 40.1053 40.367H38.2304C38.2304 39.6957 37.6842 39.1495 37.013 39.1495H35.8572C35.1866 39.1495 34.641 39.695 34.641 40.3656C34.641 41.0362 35.1866 41.5818 35.8572 41.5818H37.0401C38.7445 41.5818 40.1311 42.9685 40.1311 44.6728C40.1311 46.2602 38.9282 47.5714 37.3861 47.744V49.3042H35.5112V47.7464C33.98 47.5837 32.7831 46.2846 32.7831 44.711Z" fill="#FFCE00"/>
    <path d="M30.216 33.102C32.0047 31.9185 34.1469 31.2281 36.4475 31.2281C38.7482 31.2281 40.8905 31.9184 42.6791 33.102L42.6791 28.9983L45.8682 28.9983L45.8682 27.6427L36.4475 20L27.027 27.6427L27.027 28.9983L30.216 28.9983L30.216 33.102L30.216 33.102Z" fill="black"/>
</svg>
