  <svg
                width="32"
                height="32"
                viewBox="0 0 32 32"
                fill="none"
                xmlns="http://www.w3.org/2000/svg"
              >
                <path
                  opacity="0.1"
                  fill-rule="evenodd"
                  clip-rule="evenodd"
                  d="M0 16C0 7.16344 7.16344 0 16 0C24.8366 0 32 7.16344 32 16C32 24.8366 24.8366 32 16 32C7.16344 32 0 24.8366 0 16Z"
                  fill="white"
                />
                <path
                  d="M17.8452 16.0001C17.8452 12.6864 15.1936 10 11.9225 10C8.65145 10 6 12.6856 6 16.0001C6 19.3146 8.65165 22 11.9225 22C15.1934 22 17.8452 19.3138 17.8452 16.0001ZM24.3425 16.0001C24.3425 12.8807 23.0166 10.3521 21.3812 10.3521C19.7457 10.3521 18.4198 12.8815 18.4198 16.0001C18.4198 19.1187 19.7457 21.6481 21.3812 21.6481C23.0166 21.6481 24.3425 19.1187 24.3425 16.0001ZM27 16.0001C27 13.2052 26.5336 10.9397 25.9584 10.9397C25.3833 10.9397 24.9169 13.206 24.9169 16.0001C24.9169 18.7942 25.3833 21.0605 25.9586 21.0605C26.534 21.0605 27 18.7948 27 16.0001Z"
                  fill="#FCFCFC"
                />
              </svg>