<svg viewBox="0 0 478 62" fill="none" xmlns="http://www.w3.org/2000/svg">
<path d="M397.568 33.3841C397.568 27.675 400.315 26.0099 405.05 26.0099H407.797V15.2458C403.413 15.2458 399.848 17.6246 397.568 21.1334V15.6027H389.502V48.7868H397.568V33.3841Z" fill="black"/>
<path d="M443.827 26.0353C442.098 19.2801 436.397 15.2458 428.546 15.2458C418.733 15.2458 411.863 22.1886 411.863 32.0398C411.863 41.891 418.779 48.7868 428.593 48.7868C437.238 48.7868 442.706 43.1107 444.388 37.4345V29.9757H427.004V35.8865H437.145C435.93 39.5924 433.172 41.7034 429.2 41.7034C423.453 41.7034 419.994 38.1382 419.994 32.0398C419.994 26.3167 423.406 22.6577 428.546 22.6577C431.537 22.6577 433.78 23.8305 434.995 26.0353H443.827Z" fill="black"/>
<path d="M446.421 16.2622L458.075 38.0379V48.7868H466.275V38.0379L477.929 16.2622H468.721L462.247 29.8836L455.725 16.2622H446.421Z" fill="black"/>
<path d="M338.772 30.708V48.7274L346.813 48.7868V29.3997C346.813 20.4792 341.838 15.2458 334.376 15.2458C331.831 15.2458 328.36 17.1489 326.394 19.944V15.5432H318.354V48.7274H326.394V30.708C326.394 26.1883 328.823 23.6906 332.583 23.6906C336.343 23.6906 338.772 26.1883 338.772 30.708Z" fill="black"/>
<path d="M297.273 22.4457C303.309 22.3287 306.005 27.2457 306.064 29.9969L289.069 30.0554C289.948 24.553 293.698 22.5043 297.273 22.4457ZM312.393 39.1284H303.661C301.375 41.3528 298.094 41.5284 297.507 41.5284C296.921 41.5284 291.178 41.3528 289.479 35.909L312.979 35.8504C313.154 34.7383 313.272 32.5724 313.272 31.4602C313.272 21.9775 306.708 15.2458 297.507 15.2458C287.955 15.2458 280.747 22.0945 280.747 32.2212C280.747 42.3479 288.248 48.7868 297.507 48.7868C305.419 48.7868 310.576 44.7479 312.393 39.1284Z" fill="black"/>
<path d="M368.421 22.4457C374.457 22.3287 377.152 27.2457 377.211 29.9969L360.216 30.0554C361.095 24.553 364.846 22.5043 368.421 22.4457ZM383.54 39.1284H374.808C372.523 41.3528 369.241 41.5284 368.655 41.5284C368.069 41.5284 362.326 41.3528 360.626 35.909L384.126 35.8504C384.302 34.7383 384.419 32.5724 384.419 31.4602C384.419 21.9775 377.856 15.2458 368.655 15.2458C359.103 15.2458 351.895 22.0945 351.895 32.2212C351.895 42.3479 359.396 48.7868 368.655 48.7868C376.566 48.7868 381.723 44.7479 383.54 39.1284Z" fill="black"/>
<path d="M271.617 48.787C274.988 48.787 277.699 46.4701 277.699 43.1891C277.699 39.9081 275.005 37.6067 271.617 37.6067C268.246 37.6067 265.502 39.9081 265.502 43.1891C265.502 46.4701 268.246 48.787 271.617 48.787Z" fill="#22C680"/>
<path d="M83.8447 31.4201C83.8447 41.504 90.8554 48.5627 100.795 48.5627C108.814 48.5627 114.865 44.097 116.785 36.7982H107.758C106.365 39.6793 103.82 41.1198 100.699 41.1198C95.6573 41.1198 92.1999 37.3744 92.1999 31.4201C92.1999 25.4658 95.6573 21.7204 100.699 21.7204C103.82 21.7204 106.365 23.1609 107.758 26.042H116.785C114.865 18.7432 108.814 14.2295 100.795 14.2295C90.8554 14.2295 83.8447 21.3362 83.8447 31.4201Z" fill="black"/>
<path d="M137.789 48.7547C147.344 48.7547 155.027 41.6 155.027 31.4681C155.027 21.3362 147.392 14.2295 137.789 14.2295C128.233 14.2295 120.454 21.3362 120.454 31.4681C120.454 41.6 128.233 48.7547 137.789 48.7547ZM137.789 41.2639C132.315 41.2639 128.857 37.3744 128.857 31.4681C128.857 25.4658 132.315 21.6723 137.789 21.6723C143.167 21.6723 146.672 25.4658 146.672 31.4681C146.672 37.3744 143.167 41.2639 137.789 41.2639Z" fill="black"/>
<path d="M191.027 25.2737C189.251 18.3591 183.392 14.2295 175.325 14.2295C165.241 14.2295 158.183 21.3362 158.183 31.4201C158.183 41.504 165.289 48.5627 175.373 48.5627C184.257 48.5627 189.875 42.7524 191.603 36.9422V29.3073H173.741V35.3576H184.161C182.912 39.1511 180.079 41.3119 175.997 41.3119C170.091 41.3119 166.538 37.6625 166.538 31.4201C166.538 25.5618 170.043 21.8164 175.325 21.8164C178.398 21.8164 180.703 23.0169 181.952 25.2737H191.027Z" fill="black"/>
<path d="M254.253 29.9904V48.3579L262.679 48.4186V28.6568C262.679 19.564 257.466 14.2295 249.646 14.2295C246.979 14.2295 243.342 16.1693 241.281 19.0184V14.5326H232.854V48.3579H241.281V29.9904C241.281 25.3834 243.827 22.8374 247.767 22.8374C251.707 22.8374 254.253 25.3834 254.253 29.9904Z" fill="black"/>
<path d="M211.781 21.6384C217.985 21.5179 220.756 26.5777 220.816 29.4087L203.348 29.4689C204.252 23.8068 208.107 21.6986 211.781 21.6384ZM227.322 38.8053H218.347C215.998 41.0943 212.624 41.275 212.022 41.275C211.42 41.275 205.517 41.0943 203.77 35.4924L227.924 35.4322C228.105 34.2877 228.225 32.059 228.225 30.9146C228.225 21.1565 221.479 14.2295 212.022 14.2295C202.204 14.2295 194.795 21.277 194.795 31.6976C194.795 42.1183 202.505 48.7441 212.022 48.7441C220.154 48.7441 225.455 44.5879 227.322 38.8053Z" fill="black"/>
<path d="M62.0001 28.4592H24.3936V38.6232H62.0001V28.4592Z" fill="black"/>
<path d="M60.6432 44.2725C55.9682 55.3752 43.1205 62 31.4496 62C31.188 62 30.8773 62 30.5177 61.9968C16.0516 61.7615 0 51.4538 0 35.1257V0.554988C0 0.554988 26.4314 0 31.4496 0C44.608 0 59.2539 8.41529 62 22.1752H46.1773C42.7283 17.3522 36.3368 14.035 31.2368 14.035C23.8812 14.035 15.7573 20.2654 15.7573 28.6346V33.367C15.7573 37.7846 18.0296 41.6058 21.2497 44.2296V44.2725H21.2984C24.1589 46.5926 27.7879 47.965 31.2368 47.965C34.5387 47.965 38.3965 46.5688 41.633 44.2725H60.6432Z" fill="#22C680"/>
</svg>
