<svg width="48" height="48" viewBox="0 0 48 48" fill="none" xmlns="http://www.w3.org/2000/svg">
<g clip-path="url(#clip0)">
<path d="M34.4833 28.241L19.7584 13.5841C19.4999 13.3256 19.0777 13.3256 18.8179 13.5854L16.1894 16.2139C15.9296 16.4736 15.9296 16.896 16.1894 17.1557L17.05 18.0177L12.9055 22.1622C10.2264 24.8413 10.0932 29.0791 12.4392 31.9539L8.19484 36.1983C7.93505 36.4581 7.93505 36.8804 8.19484 37.1402L10.8593 39.8046C10.9899 39.9352 11.1603 39.9992 11.3309 39.9992C11.5014 39.9992 11.6719 39.9339 11.8025 39.8046L16.0469 35.5602C17.3898 36.6553 19.0151 37.2375 20.6577 37.2375C22.5334 37.2375 24.4105 36.5234 25.8386 35.0953L29.9831 30.9508L30.8437 31.8114C31.1008 32.0685 31.5192 32.0712 31.7789 31.8181L34.478 29.1896C34.6059 29.0644 34.6778 28.8938 34.6791 28.7167C34.6805 28.5394 34.6085 28.3662 34.4833 28.241Z" fill="#22C680"/>
<path d="M31.2538 8.74533C30.2626 7.75286 28.6467 7.75286 27.6555 8.74533L22.2334 14.1674L25.8477 17.7657L31.2604 12.3516C31.7413 11.8707 32.0065 11.2325 32.0065 10.5518C32.0065 9.87107 31.7414 9.23292 31.2538 8.74533Z" fill="black"/>
<path d="M39.2459 16.7385C38.2547 15.746 36.6387 15.746 35.6476 16.7385L30.2441 22.1419L33.8598 25.7402L39.2539 20.3461C39.7348 19.8652 40 19.227 40 18.5463C40 17.8655 39.7348 17.2261 39.2459 16.7385Z" fill="black"/>
</g>
<defs>
<clipPath id="clip0">
<rect width="32" height="32" fill="white" transform="translate(8 8)"/>
</clipPath>
</defs>
</svg>
