<svg width="48" height="48" viewBox="0 0 48 48" fill="none" xmlns="http://www.w3.org/2000/svg">
<g clip-path="url(#clip0)">
<path d="M15.0305 26.064C14.6768 26.064 14.3532 26.2631 14.1937 26.5788L11.4077 32.0945H23.0627V26.064H15.0305Z" fill="black"/>
<path d="M33.8064 26.5788C33.6469 26.2631 33.3233 26.064 32.9696 26.064H24.9375V32.0945H36.5924L33.8064 26.5788Z" fill="black"/>
<path d="M39.8985 38.6399L37.5395 33.9695H24.9375V40H39.0617C39.7589 40 40.2132 39.2632 39.8985 38.6399Z" fill="black"/>
<path d="M10.4605 33.9695L8.1016 38.6399C7.78735 39.2621 8.24004 40 8.93829 40H23.0625V33.9695H10.4605Z" fill="black"/>
<path d="M23.9998 12.8132C22.1044 12.8132 20.5625 14.3553 20.5625 16.2507C20.5625 18.1462 22.1045 19.6882 23.9998 19.6882C25.8951 19.6882 27.4371 18.1462 27.4371 16.2507C27.4371 14.3553 25.8952 12.8132 23.9998 12.8132Z" fill="#FFCE00"/>
<path d="M24 8C23.4822 8 23.0625 8.41975 23.0625 8.9375V11.0004C23.0625 11.5182 23.4822 11.9379 24 11.9379C24.5178 11.9379 24.9375 11.5182 24.9375 11.0004V8.9375C24.9375 8.41975 24.5178 8 24 8Z" fill="#FFCE00"/>
<path d="M24 20.5635C23.4822 20.5635 23.0625 20.9832 23.0625 21.501V23.5639C23.0625 24.0817 23.4822 24.5014 24 24.5014C24.5178 24.5014 24.9375 24.0817 24.9375 23.5639V21.501C24.9375 20.9832 24.5178 20.5635 24 20.5635Z" fill="#FFCE00"/>
<path d="M20.9506 11.8754L19.492 10.4167C19.1259 10.0506 18.5324 10.0506 18.1662 10.4167C17.8001 10.7827 17.8 11.3764 18.1662 11.7425L19.6247 13.2012C19.991 13.5674 20.5846 13.5672 20.9506 13.2012C21.3167 12.8351 21.3167 12.2415 20.9506 11.8754Z" fill="#FFCE00"/>
<path d="M29.8334 20.7589L28.3749 19.3002C28.0087 18.9341 27.4152 18.9341 27.049 19.3002C26.6829 19.6663 26.6829 20.2599 27.049 20.626L28.5075 22.0847C28.8739 22.4509 29.4674 22.4507 29.8334 22.0847C30.1995 21.7186 30.1995 21.125 29.8334 20.7589Z" fill="#FFCE00"/>
<path d="M18.7498 15.3132H16.687C16.1693 15.3132 15.7495 15.733 15.7495 16.2507C15.7495 16.7685 16.1693 17.1882 16.687 17.1882H18.7498C19.2676 17.1882 19.6873 16.7685 19.6873 16.2507C19.6873 15.733 19.2676 15.3132 18.7498 15.3132Z" fill="#FFCE00"/>
<path d="M31.3128 15.3132H29.25C28.7322 15.3132 28.3125 15.733 28.3125 16.2507C28.3125 16.7685 28.7322 17.1882 29.25 17.1882H31.3128C31.8306 17.1882 32.2503 16.7685 32.2503 16.2507C32.2503 15.733 31.8306 15.3132 31.3128 15.3132Z" fill="#FFCE00"/>
<path d="M20.9506 19.3002C20.5844 18.9341 19.991 18.9341 19.6247 19.3002L18.1662 20.7589C17.8 21.125 17.8001 21.7186 18.1662 22.0847C18.5324 22.4508 19.1259 22.4508 19.492 22.0847L20.9506 20.626C21.3167 20.2599 21.3167 19.6663 20.9506 19.3002Z" fill="#FFCE00"/>
<path d="M29.8334 10.4166C29.4672 10.0506 28.8738 10.0506 28.5075 10.4166L27.049 11.8753C26.6829 12.2414 26.6829 12.835 27.049 13.2011C27.4152 13.5673 28.0087 13.5672 28.3749 13.2011L29.8334 11.7424C30.1995 11.3763 30.1995 10.7827 29.8334 10.4166Z" fill="#FFCE00"/>
</g>
<defs>
<clipPath id="clip0">
<rect width="32" height="32" fill="white" transform="translate(8 8)"/>
</clipPath>
</defs>
</svg>
