<svg width="64" height="64" viewBox="0 0 64 64" fill="none" xmlns="http://www.w3.org/2000/svg">
<g clip-path="url(#clip0)">
<path d="M26.4883 6.50587V1.8462C26.4883 0.757814 25.606 -0.125 24.5171 -0.125H12.2212C11.1323 -0.125 10.25 0.757814 10.25 1.8462V6.50587H26.4883Z" fill="black"/>
<path d="M25.8296 32.356C26.0039 34.7144 26.6973 38.7432 29.3052 41.3516C31.9131 43.959 35.9414 44.6524 38.3008 44.8272C38.1265 42.4688 37.4331 38.4395 34.8252 35.8316C32.2173 33.2236 28.189 32.5303 25.8296 32.356Z" fill="black"/>
<path d="M44.6821 10.6284V19.666C44.6821 25.0855 48.6055 29.6031 53.7598 30.5357V21.4976C53.7598 16.0781 49.8369 11.561 44.6821 10.6284Z" fill="black"/>
<path d="M53.7599 34.5279C46.422 33.5596 40.7398 27.2642 40.7398 19.666V10.4487H10.3701V58.9654C10.3701 61.6725 12.5728 63.8751 15.2798 63.8751H48.8507C51.5577 63.8751 53.7599 61.6725 53.7599 58.9654V34.5279ZM42.2833 46.9571C42.2247 47.9552 41.4288 48.7511 40.4307 48.8096C40.3741 48.8131 40.1109 48.8267 39.6881 48.8267C37.4649 48.8267 30.8228 48.4439 26.5176 44.1392C21.3941 39.0157 21.8262 30.5821 21.8472 30.2256C21.9053 29.2281 22.7017 28.4317 23.6992 28.3731C24.0562 28.3526 32.4893 27.9204 37.6129 33.044C42.7364 38.1675 42.3043 46.6007 42.2833 46.9571Z" fill="#FFCE00"/>
</g>
<defs>
<clipPath id="clip0">
<rect width="64" height="64" fill="white"/>
</clipPath>
</defs>
</svg>
