<svg width="32" height="32" viewBox="0 0 32 32" fill="none" xmlns="http://www.w3.org/2000/svg">
<g clip-path="url(#clip0)">
<path d="M10.3752 5.68752H11.3127V7.62502C11.3127 8.1432 11.7321 8.56252 12.2502 8.56252H16.0002C16.5184 8.56252 16.9377 8.1432 16.9377 7.62502V5.68752H17.8752C18.2542 5.68752 18.5967 5.45958 18.7413 5.10889C18.8869 4.75827 18.8063 4.35539 18.5381 4.08714L14.7881 0.274641C14.4219 -0.0915469 13.8286 -0.0915469 13.4624 0.274641L9.71236 4.08714C9.44411 4.35539 9.36355 4.7582 9.50911 5.10889C9.6538 5.45958 9.99624 5.68752 10.3752 5.68752Z" fill="black"/>
<path d="M22.5625 17C18.4203 17 15.0625 20.3578 15.0625 24.5C15.0625 28.6421 18.4203 32 22.5625 32C26.7047 32 30.0625 28.6421 30.0625 24.5C30.0625 20.3578 26.7047 17 22.5625 17ZM24.1334 27.8739C23.9304 27.9754 23.7175 28.0554 23.4997 28.1159V28.3749C23.4997 28.8927 23.0799 29.3124 22.5622 29.3124C22.0444 29.3124 21.6247 28.8927 21.6247 28.3749V28.1452C21.2344 28.0469 20.8705 27.8818 20.5622 27.6506C20.148 27.3399 20.064 26.7523 20.3747 26.3381C20.6854 25.9239 21.273 25.8399 21.6872 26.1506C22.0622 26.4318 22.7834 26.4527 23.2949 26.1969C23.5004 26.0941 23.6114 25.9704 23.6114 25.9062C23.6114 25.794 23.6114 25.7767 23.4866 25.7101C23.242 25.5796 22.8095 25.4993 22.3912 25.4217C21.8328 25.3181 21.2553 25.211 20.7549 24.9439C20.0243 24.5539 19.638 23.9141 19.638 23.0937C19.638 22.2723 20.1306 21.5549 20.9894 21.1256C21.1929 21.0238 21.4063 20.9432 21.6247 20.8826V20.6249C21.6247 20.1072 22.0444 19.6874 22.5622 19.6874C23.0799 19.6874 23.4997 20.1072 23.4997 20.6249V20.8545C23.89 20.9528 24.2539 21.1181 24.5622 21.3493C24.9764 21.66 25.0604 22.2476 24.7497 22.6618C24.439 23.076 23.8515 23.16 23.4372 22.8493C23.0616 22.5676 22.3398 22.5468 21.8279 22.8026C21.6211 22.9059 21.513 23.0272 21.513 23.0936C21.513 23.2059 21.513 23.2231 21.6378 23.2897C21.8824 23.4203 22.3149 23.5006 22.7332 23.5781C23.2916 23.6817 23.8691 23.7889 24.3695 24.0559C25.1001 24.4459 25.4864 25.0857 25.4864 25.9062C25.4864 26.7268 24.9933 27.444 24.1334 27.8739Z" fill="black"/>
<path d="M6.625 13.25H23.5C24.0177 13.25 24.4375 12.8303 24.4375 12.3125V11.375C24.4375 10.8572 24.0177 10.4375 23.5 10.4375H6.625C6.10725 10.4375 5.6875 10.8572 5.6875 11.375V12.3125C5.6875 12.8303 6.10725 13.25 6.625 13.25Z" fill="#FFCE00"/>
<path d="M3.8125 30.125V31.0625C3.8125 31.5803 4.23225 32 4.75 32H16.9955C15.9784 31.2427 15.1332 30.2874 14.4916 29.1875H4.75C4.23225 29.1875 3.8125 29.6072 3.8125 30.125Z" fill="#FFCE00"/>
<path d="M3.8125 20.75V21.6875C3.8125 22.2053 4.23225 22.625 4.75 22.625H13.377C13.5834 21.612 13.9864 20.6787 14.4916 19.8125H4.75C4.23225 19.8125 3.8125 20.2322 3.8125 20.75Z" fill="#FFCE00"/>
<path d="M2.875 27.3125H13.6662C13.3825 26.4189 13.1875 25.4862 13.1875 24.5H2.875C2.35725 24.5 1.9375 24.9197 1.9375 25.4375V26.375C1.9375 26.8928 2.35725 27.3125 2.875 27.3125Z" fill="#FFCE00"/>
<path d="M2.875 17.9375H15.8843C17.5863 16.2057 19.9484 15.125 22.5625 15.125H2.875C2.35725 15.125 1.9375 15.5447 1.9375 16.0625V17C1.9375 17.5178 2.35725 17.9375 2.875 17.9375Z" fill="#FFCE00"/>
</g>
<defs>
<clipPath id="clip0">
<rect width="32" height="32" fill="white"/>
</clipPath>
</defs>
</svg>
