<svg width="32" height="32" viewBox="0 0 32 32" fill="none" xmlns="http://www.w3.org/2000/svg">
<path d="M19.0881 15.8325C23.4531 15.8325 27.0038 12.2812 27.0038 7.91625C27.0038 3.55125 23.4531 0 19.0881 0C14.7231 0 11.1719 3.55125 11.1719 7.91625C11.1719 12.2812 14.7231 15.8325 19.0881 15.8325ZM18.1506 3.26312V3.04813C18.1506 2.53 18.57 2.11063 19.0881 2.11063C19.6056 2.11063 20.0256 2.53 20.0256 3.04813V3.26437C21.1413 3.50375 21.9806 4.4975 21.9806 5.68375C21.9806 6.20125 21.5606 6.62125 21.0431 6.62125C20.525 6.62125 20.1056 6.20125 20.1056 5.68375C20.1056 5.35313 19.8363 5.08375 19.5056 5.08375H18.665C18.3344 5.08375 18.065 5.35313 18.065 5.68375C18.065 5.87313 18.1556 6.05312 18.3081 6.16563L19.0881 6.74312L20.9831 8.14563C21.6056 8.60625 21.9806 9.34313 21.9856 10.1181V10.1269C21.99 10.7881 21.7369 11.4119 21.2719 11.8825C20.9269 12.2319 20.4956 12.4662 20.0256 12.565V12.7844C20.0256 13.3025 19.6056 13.7219 19.0881 13.7219C18.57 13.7219 18.1506 13.3025 18.1506 12.7844V12.5681C17.6931 12.4706 17.2725 12.2456 16.9325 11.9094C16.4619 11.445 16.2006 10.825 16.1969 10.1637C16.1938 9.64625 16.6106 9.22375 17.1281 9.22062H17.1344C17.6494 9.22062 18.0688 9.63688 18.0719 10.1525C18.0731 10.4761 18.3334 10.7487 18.675 10.7487C19.193 10.7456 19.0001 10.7467 19.5144 10.7437C19.8471 10.7411 20.1132 10.4711 20.1106 10.1394V10.1306C20.1094 9.94312 20.0188 9.76437 19.8675 9.6525L19.0881 9.07563L17.1925 7.67312C16.565 7.20812 16.19 6.46438 16.19 5.68375C16.19 4.495 17.0319 3.50062 18.1506 3.26312Z" fill="#FFCE00"/>
<path d="M6.26167 20.337C6.02136 19.9203 5.48754 19.7754 5.06836 20.0172L0.658481 22.5628C0.240918 22.8045 0.097668 23.3386 0.338731 23.7567L4.84586 31.5631C5.08711 31.9805 5.62086 32.1239 6.03917 31.8828L10.449 29.3366C10.8672 29.0955 11.0099 28.5614 10.7688 28.1433L6.26167 20.337Z" fill="black"/>
<path d="M31.5297 18.7787C31.1054 18.1893 30.2841 18.0562 29.6953 18.4806C27.9091 19.7675 24.4791 22.2387 24.2066 22.4356C24.081 22.5425 23.9491 22.6393 23.8116 22.725C23.2722 23.0643 22.6466 23.2456 21.9935 23.2456H17.5029C16.9854 23.2456 16.5654 22.8262 16.5654 22.3081C16.5654 21.7893 16.986 21.3706 17.5029 21.3706H22.3054C23.011 21.3706 23.576 20.7831 23.5466 20.0762C23.5191 19.4056 22.9466 18.8856 22.2753 18.8856H18.6197C18.3722 18.6237 18.101 18.3837 17.8103 18.1693C16.811 17.4324 15.576 16.9968 14.2391 16.9968C11.8622 16.9968 9.49723 18.4943 8.5166 20.4931L12.3516 27.135H19.5454C20.9579 27.135 22.3491 26.7737 23.5735 26.0693C23.9979 25.8256 24.4522 25.5324 24.9447 25.1787C27.0085 23.6962 31.2278 20.6162 31.231 20.6143C31.821 20.1906 31.9547 19.3681 31.5297 18.7787Z" fill="black"/>
</svg>
