<svg xmlns="http://www.w3.org/2000/svg" width="108" height="80" viewBox="0 0 108 80">
    <g fill="none" fill-rule="evenodd">
        <path fill="#3B4251" fill-rule="nonzero" d="M74.703 51.477H63.86a12.108 12.108 0 0 0 8.335-3.305 12.267 12.267 0 0 0 3.865-8.919v-5.48c0-5.216-4.244-9.46-9.46-9.46h-5.528c-5.03 0-9.142 3.948-9.432 8.905a5.355 5.355 0 0 0-1.93-.695 6.237 6.237 0 0 0-5.21-2.778h-5.81a8.779 8.779 0 0 0-6.222 2.58c-.722-4.533-4.647-8.013-9.379-8.013h-5.433c-5.243 0-9.508 4.265-9.508 9.508v5.06c0 6.634 5.014 12.157 11.414 12.571.267.018.535.026.8.026H9.508C4.265 51.477 0 55.742 0 60.985v13.582h21.732V80h40.747v-5.433H84.21V60.985c0-5.243-4.265-9.508-9.508-9.508zm-8.258 2.717l-2.608 3.258-2.608-3.258h5.216zm-5.372-27.165h5.528c3.62 0 6.559 2.871 6.714 6.453a45.724 45.724 0 0 0-18.957 0c.156-3.58 3.095-6.453 6.715-6.453zm-6.744 10.866v-1.627a42.95 42.95 0 0 1 19.016 0v2.985a9.414 9.414 0 0 1-3.007 6.938 9.442 9.442 0 0 1-7.137 2.55c-4.975-.323-8.872-4.654-8.872-9.86v-.986zm-.164 8.686c2.077 2.772 5.247 4.637 8.863 4.87.266.018.533.026.798.026H52.971c-.255 0-.504.04-.755.06a12.312 12.312 0 0 0 1.949-4.956zm-21.567-7.328v-.7a6.099 6.099 0 0 1 6.091-6.091h5.81c1.356 0 2.576.754 3.182 1.965l.376.751h.84a2.72 2.72 0 0 1 2.716 2.717V41.748a4.289 4.289 0 0 1-2.717-2.716l-.379-1.137h-2.9l-1.62 1.62a3.721 3.721 0 0 1-2.647 1.096h-8.752v-1.358zm0 4.075h8.752a6.42 6.42 0 0 0 4.568-1.892l.73-.731a6.986 6.986 0 0 0 4.965 3.832v.149a9.414 9.414 0 0 1-3.007 6.938c-1.937 1.816-4.477 2.718-7.136 2.55-4.976-.323-8.872-4.654-8.872-9.86v-.986zM44.44 59.626l-.679 2.717H40.45l-.68-2.717h4.67zm-4.76-2.973c.526.109 1.063.196 1.614.231.268.018.536.026.8.026h-2.3c-.041-.084-.072-.174-.115-.257zm4.737.257H42.13a12.3 12.3 0 0 0 2.394-.24c-.04.077-.069.161-.107.24zM30.094 46.638a12.762 12.762 0 0 0 2.019 4.908c-.29-.027-.578-.069-.874-.069H20.398a12.108 12.108 0 0 0 8.334-3.305c.503-.47.95-.991 1.362-1.534zM10.866 33.82a6.799 6.799 0 0 1 6.791-6.791h5.433a6.799 6.799 0 0 1 6.791 6.791v2.495a4.289 4.289 0 0 1-2.716-2.716l-.38-1.137h-2.9l-1.62 1.62a3.721 3.721 0 0 1-2.647 1.096h-8.752V33.82zm8.872 14.92c-4.975-.322-8.872-4.653-8.872-9.86v-.985h8.752a6.42 6.42 0 0 0 4.568-1.892l.73-.731a6.986 6.986 0 0 0 4.965 3.832v.149a9.414 9.414 0 0 1-3.007 6.938 9.444 9.444 0 0 1-7.136 2.55zm4.46 5.454c-.562 1.576-2.056 2.716-3.824 2.716-1.769 0-3.263-1.14-3.825-2.716h7.65zM21.732 71.85H10.866v-9.508H8.149v9.508H2.716V60.985a6.799 6.799 0 0 1 6.792-6.791h4.212c.631 3.095 3.373 5.432 6.654 5.432 3.28 0 6.022-2.337 6.654-5.432h4.211a6.791 6.791 0 0 1 5.42 2.716h-5.42c-5.242 0-9.507 4.265-9.507 9.508v5.433zm10.866 5.433v-9.508H29.88v9.508h-5.433V66.418a6.799 6.799 0 0 1 6.791-6.792h5.73l1.037 4.147-1.441 10.09 5.13 3.42h-9.097zm6.898-4.731l1.07-7.494h3.078l1.07 7.495-2.609 1.739-2.609-1.74zm20.266 4.73H54.33v-9.507h-2.716v9.508h-9.098l5.13-3.42-1.44-10.09 1.036-4.148h5.73a6.799 6.799 0 0 1 6.791 6.792v10.866zm21.732-5.432h-5.433v-9.508h-2.716v9.508H62.479v-5.433c0-5.243-4.265-9.508-9.508-9.508h-5.42a6.791 6.791 0 0 1 5.42-2.716h4.781l6.085 7.607 6.085-7.607h4.78a6.799 6.799 0 0 1 6.792 6.79v10.867z"/>
        <path fill="#3B4251" fill-rule="nonzero" d="M85.662 0a21.317 21.317 0 0 1 15.171 6.282c8.365 8.364 8.365 21.972 0 30.335a21.317 21.317 0 0 1-15.17 6.283c-2.738 0-5.398-.51-7.87-1.483.397-1.12.667-2.299.792-3.52a17.854 17.854 0 0 0 7.077 1.448c4.781 0 9.276-1.862 12.657-5.242 6.979-6.977 6.979-18.33 0-25.307a17.784 17.784 0 0 0-12.657-5.24c-4.78 0-9.275 1.86-12.656 5.24a17.775 17.775 0 0 0-5.24 12.891 15.12 15.12 0 0 0-3.555-.613 21.298 21.298 0 0 1 6.28-14.792A21.315 21.315 0 0 1 85.662 0z"/>
        <path fill="#F90" d="M84.21 12.632h4.211v17.894h-4.21z"/>
        <path fill="#F90" d="M77.369 23.684v-4.211h17.895v4.21z"/>
    </g>
</svg>
