<svg width="43" height="43" viewBox="0 0 43 43" fill="none" xmlns="http://www.w3.org/2000/svg">
<g clip-path="url(#clip0)">
<path d="M36.7291 3.58337H34.9375C34.443 3.58337 34.0416 3.98474 34.0416 4.47924C34.0416 4.97374 34.443 5.37501 34.9375 5.37501H36.7291C39.1999 5.37501 41.2083 7.3835 41.2083 9.85415V36.7291C41.2083 39.1999 39.1998 41.2083 36.7291 41.2083H6.27086C3.80012 41.2083 1.79172 39.1998 1.79172 36.7291V9.85415C1.79164 7.3835 3.80012 5.37501 6.27086 5.37501H8.0625C8.557 5.37501 8.95836 4.97365 8.95836 4.47915C8.95836 3.98465 8.557 3.58337 8.0625 3.58337H6.27086C2.81289 3.58337 0 6.39626 0 9.85415V36.7291C0 40.1871 2.81289 43 6.27086 43H36.7292C40.1871 43 43 40.1871 43 36.7291V9.85415C43 6.39626 40.1871 3.58337 36.7291 3.58337Z" fill="black"/>
<path d="M27.7708 3.58337H15.2291C14.7346 3.58337 14.3333 3.98474 14.3333 4.47924C14.3333 4.97374 14.7346 5.37501 15.2291 5.37501H27.7708C28.2653 5.37501 28.6666 4.97365 28.6666 4.47915C28.6666 3.98465 28.2653 3.58337 27.7708 3.58337Z" fill="black"/>
<path d="M11.6459 0C11.1514 0 10.75 0.401361 10.75 0.895861V8.0625C10.75 8.557 11.1514 8.95836 11.6459 8.95836C12.1404 8.95836 12.5417 8.557 12.5417 8.0625V0.895861C12.5416 0.401361 12.1404 0 11.6459 0Z" fill="black"/>
<path d="M31.3541 0C30.8596 0 30.4583 0.401361 30.4583 0.895861V8.0625C30.4583 8.557 30.8596 8.95836 31.3541 8.95836C31.8486 8.95836 32.25 8.557 32.25 8.0625V0.895861C32.25 0.401361 31.8486 0 31.3541 0Z" fill="black"/>
<path d="M42.1041 12.5416H0.895861C0.401361 12.5416 0 12.943 0 13.4375C0 13.932 0.401361 14.3334 0.895861 14.3334H42.1042C42.5987 14.3334 43.0001 13.932 43.0001 13.4375C43.0001 12.943 42.5986 12.5416 42.1041 12.5416Z" fill="black"/>
<path d="M20.8375 21.75V33H22.9075V19.878H19.1635V21.75H20.8375Z" fill="black"/>
</g>
<defs>
<clipPath id="clip0">
<rect width="43" height="43" fill="white"/>
</clipPath>
</defs>
</svg>
