<svg width="43" height="43" viewBox="0 0 43 43" fill="none" xmlns="http://www.w3.org/2000/svg">
<g clip-path="url(#clip0)">
<path d="M27.7708 3.58337H15.2291C14.7346 3.58337 14.3333 3.98474 14.3333 4.47924C14.3333 4.97374 14.7346 5.37501 15.2291 5.37501H27.7708C28.2653 5.37501 28.6666 4.97365 28.6666 4.47915C28.6666 3.98465 28.2653 3.58337 27.7708 3.58337Z" fill="black"/>
<path d="M42.1041 12.5416H0.895861C0.401361 12.5416 0 12.943 0 13.4375C0 13.932 0.401361 14.3334 0.895861 14.3334H42.1042C42.5987 14.3334 43.0001 13.932 43.0001 13.4375C43.0001 12.943 42.5986 12.5416 42.1041 12.5416Z" fill="black"/>
<path d="M11.6459 0C11.1514 0 10.75 0.401361 10.75 0.895861V8.0625C10.75 8.557 11.1514 8.95836 11.6459 8.95836C12.1404 8.95836 12.5417 8.557 12.5417 8.0625V0.895861C12.5416 0.401361 12.1404 0 11.6459 0Z" fill="black"/>
<path d="M31.3541 0C30.8596 0 30.4583 0.401361 30.4583 0.895861V8.0625C30.4583 8.557 30.8596 8.95836 31.3541 8.95836C31.8486 8.95836 32.25 8.557 32.25 8.0625V0.895861C32.25 0.401361 31.8486 0 31.3541 0Z" fill="black"/>
<path d="M36.7291 3.58337H34.9375C34.443 3.58337 34.0416 3.98474 34.0416 4.47924C34.0416 4.97374 34.443 5.37501 34.9375 5.37501H36.7291C39.1999 5.37501 41.2083 7.3835 41.2083 9.85415V36.7291C41.2083 39.1999 39.1998 41.2083 36.7291 41.2083H6.27086C3.80012 41.2083 1.79172 39.1998 1.79172 36.7291V9.85415C1.79164 7.3835 3.80012 5.37501 6.27086 5.37501H8.0625C8.557 5.37501 8.95836 4.97365 8.95836 4.47915C8.95836 3.98465 8.557 3.58337 8.0625 3.58337H6.27086C2.81289 3.58337 0 6.39626 0 9.85415V36.7291C0 40.1871 2.81289 43 6.27086 43H36.7292C40.1871 43 43 40.1871 43 36.7291V9.85415C43 6.39626 40.1871 3.58337 36.7291 3.58337Z" fill="black"/>
<path d="M11.4346 23.118H13.4326C13.5586 22.2 14.2246 21.336 15.6646 21.336C17.0686 21.336 17.8066 22.092 17.8066 23.226C17.8066 24.63 16.6726 25.17 14.8186 25.188H14.3326V26.88H14.8006C16.9426 26.88 18.0586 27.474 18.0586 29.202C18.0586 30.426 17.3026 31.362 15.7726 31.362C14.2246 31.362 13.3246 30.426 13.2346 29.202H11.2546C11.3806 31.776 13.3066 33.072 15.7906 33.072C18.5266 33.072 20.0026 31.488 20.0026 29.4C20.0026 27.582 19.1206 26.448 17.7526 26.034V25.962C18.7786 25.62 19.7686 24.558 19.7686 22.992C19.7686 21.084 18.3466 19.572 15.7366 19.572C13.3426 19.572 11.5786 20.85 11.4346 23.118ZM22.1581 26.268C22.1581 30.084 23.1661 32.964 26.8381 32.964C30.5101 32.964 31.5181 30.084 31.5181 26.268C31.5181 22.524 30.5101 19.644 26.8381 19.644C23.1661 19.644 22.1581 22.524 22.1581 26.268ZM29.5021 26.268C29.5021 28.842 29.2321 31.092 26.8381 31.092C24.4441 31.092 24.1741 28.842 24.1741 26.268C24.1741 23.82 24.4441 21.516 26.8381 21.516C29.2321 21.516 29.5021 23.82 29.5021 26.268Z" fill="black"/>
</g>
<defs>
<clipPath id="clip0">
<rect width="43" height="43" fill="white"/>
</clipPath>
</defs>
</svg>
