<svg width="100" height="64" viewBox="0 0 100 64" fill="none" xmlns="http://www.w3.org/2000/svg">
<path d="M13.9636 49.4545C13.9636 42.2452 17.7592 35.6922 23.7393 32.0568C24.6988 20.6367 34.2999 11.6364 45.9636 11.6364C48.1575 11.6364 50.337 11.9637 52.4257 12.5983C55.5134 9.62463 59.3338 7.52582 63.4863 6.51093C60.0657 2.5024 54.9836 0 49.4545 0C43.3311 0 37.6913 3.03825 34.2931 7.96354C31.8332 6.56562 29.0453 5.81818 26.1818 5.81818C17.0921 5.81818 9.69697 13.2133 9.69697 22.303C9.69697 22.8951 9.72878 23.4857 9.79219 24.0723C4.03976 26.053 0 31.5056 0 37.8182C0 45.7131 6.32359 52.1542 14.171 52.3541C14.0354 51.4067 13.9636 50.439 13.9636 49.4545Z" fill="black"/>
<path d="M87.5802 31.7276C87.6336 31.1687 87.6605 30.6123 87.6605 30.0607C87.6605 19.9016 79.3954 11.6365 69.2363 11.6365C63.1126 11.6365 57.4729 14.6747 54.0749 19.6C51.615 18.2021 48.8271 17.4547 45.9636 17.4547C36.8738 17.4547 29.4787 24.8498 29.4787 33.9395C29.4787 34.5316 29.5105 35.1221 29.5739 35.709C23.8215 37.6895 19.7817 43.1421 19.7817 49.4547C19.7817 57.475 26.3068 64.0001 34.3272 64.0001H82.812C91.9018 64.0001 99.2969 56.605 99.2969 47.5153C99.2969 40.1 94.4362 33.7772 87.5802 31.7276Z" fill="#22C680"/>
</svg>
