<svg width="43" height="43" viewBox="0 0 43 43" fill="none" xmlns="http://www.w3.org/2000/svg">
<path d="M14.1094 10.0781C14.644 10.0781 15.1566 10.2905 15.5346 10.6685C15.9126 11.0465 16.125 11.5592 16.125 12.0938C16.125 12.2719 16.1958 12.4428 16.3218 12.5688C16.4478 12.6948 16.6187 12.7656 16.7969 12.7656C16.9751 12.7656 17.146 12.6948 17.272 12.5688C17.398 12.4428 17.4688 12.2719 17.4688 12.0938C17.4688 11.2028 17.1148 10.3483 16.4848 9.71831C15.8548 9.08831 15.0003 8.73438 14.1094 8.73438C13.2184 8.73438 12.3639 9.08831 11.7339 9.71831C11.1039 10.3483 10.75 11.2028 10.75 12.0938V14.7812C10.75 15.6722 11.1039 16.5267 11.7339 17.1567C12.3639 17.7867 13.2184 18.1406 14.1094 18.1406C15.0003 18.1406 15.8548 17.7867 16.4848 17.1567C17.1148 16.5267 17.4688 15.6722 17.4688 14.7812C17.4688 14.6031 17.398 14.4322 17.272 14.3062C17.146 14.1802 16.9751 14.1094 16.7969 14.1094C16.6187 14.1094 16.4478 14.1802 16.3218 14.3062C16.1958 14.4322 16.125 14.6031 16.125 14.7812C16.125 15.3158 15.9126 15.8285 15.5346 16.2065C15.1566 16.5845 14.644 16.7969 14.1094 16.7969C13.5748 16.7969 13.0621 16.5845 12.6841 16.2065C12.3061 15.8285 12.0938 15.3158 12.0938 14.7812V12.0938C12.0938 11.5592 12.3061 11.0465 12.6841 10.6685C13.0621 10.2905 13.5748 10.0781 14.1094 10.0781Z" fill="black"/>
<path d="M28.8906 17.4688C29.2893 17.4688 29.679 17.3505 30.0104 17.1291C30.3419 16.9076 30.6003 16.5928 30.7528 16.2245C30.9054 15.8562 30.9453 15.4509 30.8675 15.0599C30.7897 14.6689 30.5978 14.3098 30.3159 14.0279C30.034 13.746 29.6748 13.554 29.2839 13.4762C28.8929 13.3985 28.4876 13.4384 28.1193 13.5909C27.751 13.7435 27.4362 14.0018 27.2147 14.3333C26.9932 14.6648 26.875 15.0545 26.875 15.4531C26.875 15.6313 26.9458 15.8022 27.0718 15.9282C27.1978 16.0542 27.3687 16.125 27.5469 16.125C27.7251 16.125 27.896 16.0542 28.022 15.9282C28.148 15.8022 28.2188 15.6313 28.2188 15.4531C28.2188 15.3202 28.2582 15.1903 28.332 15.0799C28.4058 14.9694 28.5107 14.8832 28.6335 14.8324C28.7563 14.7815 28.8914 14.7682 29.0217 14.7942C29.152 14.8201 29.2718 14.8841 29.3657 14.978C29.4597 15.072 29.5237 15.1917 29.5496 15.322C29.5755 15.4524 29.5622 15.5875 29.5114 15.7102C29.4605 15.833 29.3744 15.9379 29.2639 16.0118C29.1534 16.0856 29.0235 16.125 28.8906 16.125C28.356 16.125 27.8434 16.3374 27.4654 16.7154C27.0874 17.0934 26.875 17.606 26.875 18.1406V18.8125C26.875 18.9907 26.9458 19.1616 27.0718 19.2876C27.1978 19.4136 27.3687 19.4844 27.5469 19.4844H30.2344C30.4126 19.4844 30.5835 19.4136 30.7095 19.2876C30.8355 19.1616 30.9063 18.9907 30.9063 18.8125C30.9063 18.6343 30.8355 18.4634 30.7095 18.3374C30.5835 18.2114 30.4126 18.1406 30.2344 18.1406H28.2188C28.2188 17.9624 28.2895 17.7915 28.4155 17.6655C28.5415 17.5395 28.7124 17.4688 28.8906 17.4688Z" fill="black"/>
<path d="M18.8125 12.0938V14.7812C18.8125 15.6722 19.1664 16.5267 19.7964 17.1567C20.4264 17.7867 21.2809 18.1406 22.1719 18.1406C23.0628 18.1406 23.9173 17.7867 24.5473 17.1567C25.1773 16.5267 25.5312 15.6722 25.5312 14.7812V12.0938C25.5312 11.2028 25.1773 10.3483 24.5473 9.71831C23.9173 9.08831 23.0628 8.73438 22.1719 8.73438C21.2809 8.73438 20.4264 9.08831 19.7964 9.71831C19.1664 10.3483 18.8125 11.2028 18.8125 12.0938ZM24.1875 12.0938V14.7812C24.1875 15.3158 23.9751 15.8285 23.5971 16.2065C23.2191 16.5845 22.7065 16.7969 22.1719 16.7969C21.6373 16.7969 21.1246 16.5845 20.7466 16.2065C20.3686 15.8285 20.1562 15.3158 20.1562 14.7812V12.0938C20.1562 11.5592 20.3686 11.0465 20.7466 10.6685C21.1246 10.2905 21.6373 10.0781 22.1719 10.0781C22.7065 10.0781 23.2191 10.2905 23.5971 10.6685C23.9751 11.0465 24.1875 11.5592 24.1875 12.0938Z" fill="black"/>
<path d="M7.31007 20.3243C8.38629 21.3865 9.71984 22.1511 11.1802 22.5432C12.6406 22.9354 14.1778 22.9418 15.6413 22.5616C17.3944 23.6163 19.3998 24.178 21.4456 24.1875C23.4915 24.1969 25.502 23.6538 27.2648 22.6154C28.3825 23.3565 29.737 23.653 31.0621 23.4467C32.3873 23.2403 33.5875 22.546 34.4269 21.5001C35.4634 21.4785 36.4836 21.2392 37.4215 20.7976C38.3594 20.3561 39.1939 19.7222 39.8708 18.937C40.5477 18.1519 41.0519 17.2332 41.3506 16.2406C41.6493 15.2479 41.7358 14.2035 41.6046 13.1752C41.4733 12.1469 41.1272 11.1578 40.5887 10.272C40.0502 9.38615 39.3314 8.62354 38.479 8.03365C37.6266 7.44377 36.6596 7.0398 35.6409 6.848C34.6221 6.65621 33.5744 6.68086 32.5659 6.92037C32.3921 6.96135 32.2418 7.06967 32.1479 7.22151C32.054 7.37334 32.0243 7.55624 32.0653 7.72998C32.1063 7.90372 32.2146 8.05406 32.3664 8.14793C32.5183 8.2418 32.7012 8.27151 32.8749 8.23053C33.3302 8.11962 33.7971 8.06323 34.2657 8.06256C35.8694 8.06968 37.4046 8.7136 38.5336 9.85265C39.6626 10.9917 40.2928 12.5326 40.2857 14.1363C40.2786 15.74 39.6347 17.2753 38.4956 18.4042C37.3566 19.5332 35.8157 20.1634 34.2119 20.1563H34.1112C34.0006 20.1543 33.8912 20.1796 33.7928 20.23C33.6943 20.2804 33.6098 20.3543 33.5468 20.4452C33.2316 20.8991 32.8264 21.2834 32.3564 21.5741C31.8864 21.8649 31.3617 22.0559 30.8147 22.1353C30.2678 22.2147 29.7104 22.1807 29.1772 22.0356C28.6439 21.8905 28.1462 21.6373 27.7149 21.2918C27.6048 21.2032 27.4695 21.1517 27.3284 21.1445C27.1873 21.1372 27.0474 21.1747 26.9288 21.2515C25.3144 22.2889 23.4359 22.8404 21.5169 22.8404C19.5979 22.8404 17.7193 22.2889 16.1049 21.2515C16.0237 21.2005 15.9325 21.1676 15.8374 21.1549C15.7424 21.1421 15.6458 21.1499 15.554 21.1776C14.2042 21.5697 12.7712 21.5729 11.4197 21.1866C10.0683 20.8003 8.85334 20.0402 7.91476 18.994C7.80193 18.8662 7.64478 18.7861 7.47512 18.7699C7.30547 18.7537 7.13599 18.8026 7.00101 18.9066C6.53903 19.2759 5.96646 19.4794 5.37507 19.4844C4.6623 19.4844 3.97872 19.2013 3.47472 18.6973C2.97071 18.1933 2.68757 17.5097 2.68757 16.7969C2.68757 16.0842 2.97071 15.4006 3.47472 14.8966C3.97872 14.3926 4.6623 14.1094 5.37507 14.1094H5.43554C5.60373 14.1101 5.76606 14.0477 5.89046 13.9345C6.01486 13.8213 6.09228 13.6655 6.10741 13.498C6.25405 11.7078 7.04762 10.0323 8.33979 8.78464C9.63196 7.53699 11.3343 6.80262 13.1285 6.71881C13.2243 6.71524 13.3183 6.69122 13.404 6.64834C13.4898 6.60546 13.5654 6.54472 13.6257 6.47021C14.5698 5.2883 15.7678 4.33407 17.131 3.67829C18.4941 3.0225 19.9874 2.68199 21.5001 2.68199C23.0128 2.68199 24.506 3.0225 25.8692 3.67829C27.2323 4.33407 28.4304 5.2883 29.3744 6.47021C29.4853 6.60865 29.6464 6.69764 29.8226 6.71778C29.9988 6.73792 30.1758 6.68757 30.3151 6.57771C30.3846 6.52275 30.4425 6.45458 30.4856 6.37713C30.5287 6.29967 30.556 6.21447 30.566 6.12641C30.576 6.03836 30.5684 5.9492 30.5438 5.86406C30.5192 5.77893 30.478 5.69951 30.4226 5.63037C29.3676 4.31153 28.0334 3.24304 26.5158 2.50186C24.9983 1.76068 23.3353 1.36525 21.6466 1.34404C19.9578 1.32283 18.2854 1.67638 16.7498 2.37923C15.2141 3.08207 13.8534 4.11672 12.7657 5.40865C10.7979 5.55911 8.93899 6.37157 7.49198 7.71365C6.04497 9.05573 5.09514 10.8483 4.79726 12.7993C4.21058 12.88 3.6489 13.089 3.15215 13.4115C2.65541 13.7339 2.2358 14.1618 1.92317 14.6648C1.61054 15.1677 1.41257 15.7334 1.34332 16.3215C1.27408 16.9097 1.33527 17.5058 1.52254 18.0677C1.70982 18.6295 2.01857 19.1431 2.42685 19.5721C2.83514 20.0011 3.33292 20.3348 3.8848 20.5496C4.43668 20.7644 5.02911 20.855 5.61996 20.8149C6.2108 20.7748 6.78556 20.605 7.30335 20.3176L7.31007 20.3243Z" fill="black"/>
<path d="M37.6989 22.2593C37.5252 22.2192 37.3426 22.2498 37.1914 22.3443C37.0402 22.4388 36.9327 22.5895 36.8927 22.7632C36.8526 22.9369 36.8831 23.1195 36.9776 23.2707C37.0721 23.4219 37.2228 23.5293 37.3966 23.5694C37.77 23.6566 38.1109 23.8485 38.3791 24.1227C38.6473 24.3968 38.8318 24.7418 38.9108 25.1171C38.9898 25.4923 38.9601 25.8824 38.8252 26.2414C38.6902 26.6004 38.4557 26.9135 38.1491 27.1438C38.0784 27.1969 38.0188 27.2633 37.9739 27.3394C37.9289 27.4155 37.8994 27.4997 37.887 27.5873C37.8756 27.6749 37.8816 27.7639 37.9047 27.8492C37.9277 27.9345 37.9674 28.0145 38.0214 28.0844C38.1983 28.3162 38.2949 28.5992 38.2969 28.8907C38.2972 29.1348 38.2311 29.3744 38.1056 29.5838C37.98 29.7931 37.7998 29.9643 37.5843 30.079C37.3688 30.1937 37.1261 30.2475 36.8823 30.2346C36.6385 30.2217 36.4029 30.1427 36.2006 30.006C36.0807 29.9261 35.9382 29.8868 35.7942 29.8941C35.6502 29.9013 35.5124 29.9547 35.4011 30.0463C35.3237 30.1075 35.2606 30.1849 35.2165 30.2732C35.1724 30.3614 35.1482 30.4583 35.1458 30.5569C35.144 30.6546 35.1635 30.7515 35.2029 30.8408C35.2424 30.9302 35.3008 31.0098 35.3742 31.0743C35.4786 31.1636 35.5531 31.2827 35.5877 31.4156C35.6223 31.5485 35.6153 31.6888 35.5678 31.8176C35.5202 31.9465 35.4343 32.0576 35.3216 32.1361C35.2089 32.2146 35.0748 32.2567 34.9375 32.2567C34.8002 32.2567 34.6661 32.2146 34.5534 32.1361C34.4407 32.0576 34.3548 31.9465 34.3072 31.8176C34.2597 31.6888 34.2527 31.5485 34.2873 31.4156C34.3219 31.2827 34.3964 31.1636 34.5008 31.0743C34.5723 31.0112 34.6295 30.9337 34.6687 30.8468C34.708 30.7599 34.7283 30.6657 34.7283 30.5704C34.7283 30.4751 34.708 30.3808 34.6687 30.2939C34.6295 30.2071 34.5723 30.1295 34.5008 30.0665C34.3989 29.9766 34.3266 29.858 34.2935 29.7263C34.2604 29.5946 34.268 29.4559 34.3153 29.3286C34.3626 29.2013 34.4474 29.0912 34.5584 29.0131C34.6695 28.9349 34.8017 28.8922 34.9375 28.8907H35.0181C35.163 28.8992 35.3067 28.8607 35.4278 28.7807C35.5489 28.7008 35.6409 28.5838 35.69 28.4473C35.7359 28.3149 35.8016 28.1903 35.8848 28.0777C35.9388 28.0078 35.9785 27.9278 36.0016 27.8425C36.0246 27.7572 36.0306 27.6682 36.0192 27.5805C36.0069 27.493 35.9773 27.4088 35.9324 27.3327C35.8874 27.2566 35.8279 27.1901 35.7572 27.1371C35.5053 26.9514 35.3001 26.7097 35.1578 26.431C35.0155 26.1522 34.9401 25.8442 34.9375 25.5313C34.9418 25.3588 34.9666 25.1874 35.0114 25.0207C35.0388 24.9195 35.0421 24.8134 35.0211 24.7107C35.0001 24.6081 34.9553 24.5117 34.8905 24.4294C34.8244 24.3478 34.7402 24.2829 34.6445 24.2397C34.5489 24.1965 34.4444 24.1764 34.3395 24.1808H34.2656C34.0787 24.1784 33.8932 24.149 33.7147 24.0935C33.547 24.0549 33.3709 24.0821 33.2227 24.1695C33.0745 24.2569 32.9654 24.3978 32.9181 24.5632C32.8707 24.7286 32.8885 24.9059 32.968 25.0585C33.0475 25.2112 33.1825 25.3275 33.3452 25.3835L33.5938 25.4507V25.5313C33.5955 26.2968 33.8586 27.0387 34.3395 27.6343C33.9282 27.7621 33.5686 28.0182 33.3135 28.3652C33.0584 28.7123 32.9211 29.1319 32.9219 29.5626C32.9209 29.9172 33.0161 30.2655 33.1973 30.5704C33.0161 30.8752 32.9209 31.2235 32.9219 31.5782C32.9237 31.8074 32.9646 32.0346 33.0428 32.2501H32.25C32.0807 32.2495 31.9175 32.3129 31.793 32.4275C31.6684 32.5421 31.5917 32.6995 31.5781 32.8682L31.3497 35.6094H30.9062C30.7281 35.6094 30.5572 35.6802 30.4312 35.8062C30.3052 35.9322 30.2344 36.1031 30.2344 36.2813C30.2344 36.4595 30.3052 36.6304 30.4312 36.7564C30.5572 36.8824 30.7281 36.9532 30.9062 36.9532H31.2422L30.9062 40.9307C30.892 41.1089 30.9491 41.2854 31.065 41.4215C31.181 41.5576 31.3462 41.6421 31.5244 41.6563C31.7026 41.6706 31.8791 41.6135 32.0152 41.4975C32.1513 41.3816 32.2357 41.2164 32.25 41.0382L32.5859 36.9532H37.2891L37.625 41.0382C37.6385 41.2069 37.7153 41.3643 37.8398 41.4789C37.9644 41.5935 38.1276 41.6569 38.2969 41.6563H38.3506C38.439 41.6495 38.5251 41.6253 38.604 41.5851C38.683 41.545 38.7532 41.4895 38.8106 41.4221C38.8681 41.3547 38.9116 41.2765 38.9388 41.1922C38.9659 41.1078 38.9761 41.019 38.9688 40.9307L38.6328 36.9532H38.9688C39.1469 36.9532 39.3178 36.8824 39.4438 36.7564C39.5698 36.6304 39.6406 36.4595 39.6406 36.2813C39.6406 36.1031 39.5698 35.9322 39.4438 35.8062C39.3178 35.6802 39.1469 35.6094 38.9688 35.6094H38.5253L38.2969 32.8682C38.2833 32.6995 38.2066 32.5421 38.082 32.4275C37.9575 32.3129 37.7943 32.2495 37.625 32.2501H36.8322C36.9104 32.0346 36.9513 31.8074 36.9531 31.5782C37.6659 31.5782 38.3495 31.295 38.8535 30.791C39.3575 30.287 39.6406 29.6035 39.6406 28.8907C39.6403 28.5182 39.5625 28.1498 39.4122 27.809C39.9934 27.1934 40.3158 26.3779 40.3125 25.5313C40.3117 24.7706 40.0527 24.0326 39.5779 23.4382C39.1031 22.8438 38.4407 22.4282 37.6989 22.2593ZM37.1748 35.6094H32.7002L32.8681 33.5938H37.0069L37.1748 35.6094Z" fill="black"/>
<path d="M27.735 24.8124C27.553 25.0293 27.3272 25.2055 27.0725 25.3293C26.8179 25.4532 26.5399 25.522 26.2569 25.5313H26.1359C25.9834 25.5264 25.8337 25.5737 25.7116 25.6653C25.5894 25.7569 25.5022 25.8873 25.4641 26.0352C25.3484 26.4822 25.0827 26.8759 24.7116 27.1505C24.6409 27.2035 24.5813 27.27 24.5364 27.3461C24.4914 27.4222 24.4619 27.5064 24.4495 27.5939C24.4381 27.6816 24.4441 27.7706 24.4672 27.8559C24.4902 27.9412 24.5299 28.0211 24.5839 28.0911C24.7594 28.321 24.856 28.6014 24.8594 28.8906C24.8597 29.1348 24.7936 29.3744 24.6681 29.5837C24.5425 29.7931 24.3623 29.9643 24.1468 30.079C23.9313 30.1936 23.6886 30.2474 23.4448 30.2345C23.201 30.2217 22.9654 30.1427 22.7631 30.0059C22.6432 29.926 22.5007 29.8868 22.3567 29.894C22.2127 29.9013 22.0749 29.9547 21.9636 30.0463C21.8862 30.1074 21.8231 30.1849 21.779 30.2731C21.7349 30.3614 21.7107 30.4582 21.7083 30.5569C21.7065 30.6545 21.726 30.7514 21.7654 30.8408C21.8049 30.9301 21.8633 31.0098 21.9367 31.0742C22.0411 31.1635 22.1156 31.2826 22.1502 31.4155C22.1848 31.5484 22.1778 31.6888 22.1303 31.8176C22.0827 31.9464 21.9968 32.0576 21.8841 32.1361C21.7714 32.2146 21.6373 32.2567 21.5 32.2567C21.3627 32.2567 21.2286 32.2146 21.1159 32.1361C21.0032 32.0576 20.9173 31.9464 20.8697 31.8176C20.8222 31.6888 20.8152 31.5484 20.8498 31.4155C20.8844 31.2826 20.9589 31.1635 21.0633 31.0742C21.1348 31.0112 21.192 30.9336 21.2313 30.8468C21.2705 30.7599 21.2908 30.6656 21.2908 30.5703C21.2908 30.475 21.2705 30.3808 21.2313 30.2939C21.192 30.207 21.1348 30.1295 21.0633 30.0664C20.9614 29.9766 20.8891 29.858 20.856 29.7263C20.8229 29.5945 20.8305 29.4559 20.8778 29.3285C20.9251 29.2012 21.0099 29.0912 21.1209 29.013C21.232 28.9349 21.3642 28.8922 21.5 28.8906H21.5806C21.7255 28.8992 21.8692 28.8606 21.9903 28.7807C22.1114 28.7008 22.2034 28.5838 22.2525 28.4472C22.2984 28.3149 22.3641 28.1903 22.4473 28.0777C22.5013 28.0077 22.541 27.9278 22.5641 27.8425C22.5871 27.7571 22.5931 27.6681 22.5817 27.5805C22.5694 27.493 22.5398 27.4087 22.4949 27.3327C22.4499 27.2566 22.3904 27.1901 22.3197 27.137C21.9447 26.8618 21.6765 26.4654 21.5605 26.015C21.5161 25.8435 21.4058 25.6964 21.2536 25.6058C21.1013 25.5152 20.9194 25.4884 20.7475 25.5313C20.6612 25.5525 20.58 25.5905 20.5086 25.6433C20.4371 25.6961 20.3768 25.7625 20.3312 25.8388C20.2856 25.915 20.2556 25.9995 20.2428 26.0874C20.2301 26.1753 20.2349 26.2649 20.257 26.351C20.385 26.8225 20.6143 27.2604 20.9289 27.6342C20.5126 27.7572 20.1471 28.0113 19.8868 28.3588C19.6265 28.7062 19.4854 29.1284 19.4844 29.5625C19.4834 29.9172 19.5786 30.2655 19.7598 30.5703C19.5786 30.8752 19.4834 31.2235 19.4844 31.5781C19.4862 31.8073 19.5271 32.0346 19.6053 32.25H18.8125C18.6432 32.2495 18.48 32.3128 18.3554 32.4274C18.2309 32.542 18.1542 32.6994 18.1406 32.8681L17.9122 35.6094H17.4688C17.2906 35.6094 17.1197 35.6802 16.9937 35.8062C16.8677 35.9322 16.7969 36.1031 16.7969 36.2813C16.7969 36.4595 16.8677 36.6303 16.9937 36.7563C17.1197 36.8823 17.2906 36.9531 17.4688 36.9531H17.8047L17.4688 40.9306C17.4617 41.0189 17.4721 41.1076 17.4993 41.1918C17.5266 41.2761 17.5701 41.3541 17.6275 41.4215C17.6849 41.4888 17.755 41.5443 17.8339 41.5845C17.9127 41.6248 17.9986 41.6492 18.0869 41.6563C18.1751 41.6633 18.2639 41.6529 18.3481 41.6257C18.4323 41.5984 18.5103 41.5549 18.5777 41.4975C18.6451 41.4401 18.7005 41.37 18.7408 41.2912C18.7811 41.2123 18.8054 41.1264 18.8125 41.0381L19.1484 36.9531H23.8516L24.1875 41.0381C24.201 41.2069 24.2778 41.3642 24.4023 41.4788C24.5269 41.5934 24.6901 41.6568 24.8594 41.6563H24.9131C25.0015 41.6495 25.0876 41.6253 25.1665 41.5851C25.2455 41.5449 25.3157 41.4895 25.3731 41.422C25.4306 41.3546 25.4741 41.2765 25.5013 41.1921C25.5284 41.1078 25.5386 41.0189 25.5312 40.9306L25.1953 36.9531H25.5312C25.7094 36.9531 25.8803 36.8823 26.0063 36.7563C26.1323 36.6303 26.2031 36.4595 26.2031 36.2813C26.2031 36.1031 26.1323 35.9322 26.0063 35.8062C25.8803 35.6802 25.7094 35.6094 25.5312 35.6094H25.0878L24.8594 32.8681C24.8458 32.6994 24.7691 32.542 24.6445 32.4274C24.52 32.3128 24.3568 32.2495 24.1875 32.25H23.3947C23.4729 32.0346 23.5138 31.8073 23.5156 31.5781C24.2284 31.5781 24.912 31.295 25.416 30.791C25.92 30.287 26.2031 29.6034 26.2031 28.8906C26.2028 28.5181 26.125 28.1498 25.9747 27.8089C26.2339 27.5349 26.4452 27.2192 26.5995 26.875C27.4401 26.7711 28.2104 26.3536 28.7562 25.7059C28.8217 25.6402 28.8729 25.5617 28.9065 25.4753C28.9401 25.3888 28.9555 25.2963 28.9516 25.2037C28.9478 25.111 28.9247 25.0201 28.884 24.9368C28.8433 24.8535 28.7858 24.7794 28.7151 24.7194C28.6444 24.6594 28.562 24.6147 28.4731 24.5881C28.3843 24.5615 28.2909 24.5535 28.1988 24.5648C28.1067 24.576 28.018 24.6062 27.9382 24.6535C27.8584 24.7007 27.7892 24.7639 27.735 24.8392V24.8124ZM23.7373 35.6094H19.2627L19.4306 33.5938H23.5694L23.7373 35.6094Z" fill="black"/>
<path d="M15.4531 24.1137C15.2944 24.034 15.1107 24.0203 14.942 24.0757C14.7733 24.1311 14.6334 24.2511 14.5528 24.4093C14.3919 24.7353 14.1458 25.0116 13.8407 25.2091C13.5355 25.4067 13.1826 25.518 12.8194 25.5313H12.6984C12.5459 25.5265 12.3962 25.5738 12.2741 25.6654C12.1519 25.757 12.0646 25.8874 12.0266 26.0352C11.9109 26.4822 11.6452 26.8759 11.2741 27.1505C11.2034 27.2036 11.1438 27.2701 11.0989 27.3462C11.0539 27.4223 11.0244 27.5065 11.012 27.594C11.0006 27.6816 11.0066 27.7707 11.0297 27.856C11.0527 27.9413 11.0924 28.0212 11.1464 28.0912C11.3219 28.3211 11.4185 28.6015 11.4219 28.8907C11.4222 29.1348 11.3561 29.3744 11.2306 29.5838C11.105 29.7932 10.9248 29.9644 10.7093 30.079C10.4938 30.1937 10.2511 30.2475 10.0073 30.2346C9.76355 30.2218 9.52787 30.1427 9.32562 30.006C9.20567 29.9261 9.06317 29.8868 8.9192 29.8941C8.77523 29.9014 8.6374 29.9547 8.52609 30.0463C8.44865 30.1075 8.38563 30.1849 8.34151 30.2732C8.29738 30.3614 8.27323 30.4583 8.27078 30.557C8.26897 30.6546 8.28846 30.7515 8.32792 30.8408C8.36737 30.9302 8.42583 31.0099 8.49922 31.0743C8.60359 31.1636 8.67809 31.2827 8.7127 31.4156C8.7473 31.5485 8.74035 31.6888 8.69276 31.8177C8.64518 31.9465 8.55926 32.0576 8.44657 32.1362C8.33388 32.2147 8.19984 32.2568 8.0625 32.2568C7.92516 32.2568 7.79112 32.2147 7.67843 32.1362C7.56574 32.0576 7.47982 31.9465 7.43224 31.8177C7.38465 31.6888 7.3777 31.5485 7.4123 31.4156C7.44691 31.2827 7.52141 31.1636 7.62578 31.0743C7.69727 31.0112 7.75453 30.9337 7.79375 30.8468C7.83297 30.7599 7.85325 30.6657 7.85325 30.5704C7.85325 30.4751 7.83297 30.3808 7.79375 30.294C7.75453 30.2071 7.69727 30.1295 7.62578 30.0665C7.5239 29.9767 7.45164 29.8581 7.41853 29.7263C7.38542 29.5946 7.39301 29.4559 7.4403 29.3286C7.4876 29.2013 7.57237 29.0913 7.68345 29.0131C7.79452 28.9349 7.92668 28.8922 8.0625 28.8907H8.14313C8.28798 28.8993 8.43172 28.8607 8.55283 28.7808C8.67394 28.7008 8.76591 28.5838 8.815 28.4473C8.86088 28.3149 8.92657 28.1903 9.00984 28.0777C9.06384 28.0078 9.1035 27.9278 9.12656 27.8425C9.14962 27.7572 9.15562 27.6682 9.14422 27.5805C9.13186 27.493 9.10235 27.4088 9.05738 27.3327C9.01242 27.2566 8.95288 27.1902 8.88219 27.1371C8.63029 26.9515 8.42507 26.7097 8.2828 26.431C8.14053 26.1523 8.0651 25.8442 8.0625 25.5313C8.06357 25.0721 8.22519 24.6276 8.51938 24.2749C8.60096 24.1666 8.64783 24.036 8.65383 23.9005C8.65982 23.765 8.62466 23.6309 8.55297 23.5157C8.43907 23.3334 8.3445 23.1398 8.27078 22.9379C8.2439 22.8495 8.19906 22.7675 8.13907 22.6972C8.07907 22.6269 8.00522 22.5697 7.92211 22.5292C7.83901 22.4888 7.74846 22.4659 7.65611 22.462C7.56376 22.4581 7.4716 22.4734 7.38541 22.5067C7.29921 22.5401 7.22082 22.5909 7.15515 22.6559C7.08948 22.721 7.03794 22.7989 7.00374 22.8847C6.96955 22.9706 6.95344 23.0626 6.95643 23.155C6.95941 23.2474 6.98143 23.3382 7.02109 23.4216C7.07217 23.5666 7.13277 23.708 7.2025 23.8449C6.89043 24.3524 6.72314 24.9356 6.71875 25.5313C6.72049 26.2968 6.9836 27.0388 7.46453 27.6343C7.05322 27.7621 6.69365 28.0182 6.43853 28.3653C6.18341 28.7123 6.04615 29.1319 6.04688 29.5626C6.04592 29.9172 6.14111 30.2655 6.32234 30.5704C6.14111 30.8753 6.04592 31.2235 6.04688 31.5782C6.04869 31.8074 6.08959 32.0346 6.16781 32.2501H5.375C5.20574 32.2495 5.04251 32.3129 4.91795 32.4275C4.79339 32.5421 4.71666 32.6995 4.70312 32.8682L4.47469 35.6095H4.03125C3.85306 35.6095 3.68216 35.6802 3.55616 35.8062C3.43016 35.9322 3.35938 36.1031 3.35938 36.2813C3.35938 36.4595 3.43016 36.6304 3.55616 36.7564C3.68216 36.8824 3.85306 36.9532 4.03125 36.9532H4.36719L4.03125 40.9307C4.02419 41.0189 4.03458 41.1077 4.06182 41.1919C4.08907 41.2761 4.13263 41.3542 4.19003 41.4215C4.24743 41.4889 4.31754 41.5443 4.39635 41.5846C4.47517 41.6249 4.56114 41.6493 4.64938 41.6563C4.73761 41.6634 4.82637 41.653 4.91058 41.6258C4.9948 41.5985 5.07282 41.5549 5.14021 41.4975C5.20759 41.4402 5.263 41.37 5.30329 41.2912C5.34357 41.2124 5.36794 41.1264 5.375 41.0382L5.71094 36.9532H10.4141L10.75 41.0382C10.7635 41.2069 10.8403 41.3643 10.9648 41.4789C11.0894 41.5935 11.2526 41.6569 11.4219 41.6563H11.4756C11.564 41.6495 11.6501 41.6254 11.729 41.5852C11.808 41.545 11.8782 41.4896 11.9356 41.4221C11.9931 41.3547 12.0366 41.2765 12.0638 41.1922C12.0909 41.1079 12.1011 41.019 12.0938 40.9307L11.7578 36.9532H12.0938C12.2719 36.9532 12.4428 36.8824 12.5688 36.7564C12.6948 36.6304 12.7656 36.4595 12.7656 36.2813C12.7656 36.1031 12.6948 35.9322 12.5688 35.8062C12.4428 35.6802 12.2719 35.6095 12.0938 35.6095H11.6503L11.4219 32.8682C11.4083 32.6995 11.3316 32.5421 11.2071 32.4275C11.0825 32.3129 10.9193 32.2495 10.75 32.2501H9.95719C10.0354 32.0346 10.0763 31.8074 10.0781 31.5782C10.7909 31.5782 11.4745 31.2951 11.9785 30.7911C12.4825 30.2871 12.7656 29.6035 12.7656 28.8907C12.7653 28.5182 12.6875 28.1498 12.5372 27.809C12.7964 27.535 13.0077 27.2193 13.162 26.8751C13.7133 26.8081 14.2393 26.6054 14.6931 26.2854C15.1468 25.9653 15.5141 25.5377 15.7622 25.0409C15.8055 24.9602 15.8318 24.8716 15.8396 24.7804C15.8474 24.6892 15.8365 24.5974 15.8076 24.5106C15.7787 24.4238 15.7323 24.3438 15.6713 24.2756C15.6104 24.2073 15.5361 24.1522 15.4531 24.1137ZM10.2998 35.6095H5.82516L5.99312 33.5938H10.1319L10.2998 35.6095Z" fill="black"/>
</svg>
