<svg width="32" height="32" viewBox="0 0 32 32" fill="none" xmlns="http://www.w3.org/2000/svg">
<path d="M20.1071 1.97488L16.3573 0.0999337C16.0934 -0.0319375 15.7829 -0.032 15.519 0.0997462L12.1852 1.76526L8.85434 0.0999337C8.59029 -0.03225 8.27936 -0.032 8.01531 0.100184L4.69096 1.76513L1.35744 0.0997462C0.735393 -0.210932 0.000976562 0.24168 0.000976562 0.938409V31.0625C0.000976562 31.5803 0.420714 32 0.938449 32H19.6879C20.2056 32 20.6254 31.5803 20.6254 31.0625V2.81335C20.6254 2.45824 20.4248 2.13362 20.1071 1.97488ZM4.75084 7.56321H12.2506C12.7684 7.56321 13.1881 7.98295 13.1881 8.50069C13.1881 9.01842 12.7684 9.43816 12.2506 9.43816H4.75084C4.2331 9.43816 3.81337 9.01842 3.81337 8.50069C3.81337 7.98295 4.2331 7.56321 4.75084 7.56321ZM11.2578 26.8271V27.3021C11.2578 27.8199 10.8381 28.2396 10.3204 28.2396C9.80263 28.2396 9.38289 27.8199 9.38289 27.3021V26.9183C8.7441 26.8452 8.21374 26.6511 7.49876 26.1834C7.06546 25.8999 6.94402 25.3189 7.22745 24.8856C7.51088 24.4523 8.09193 24.3308 8.52523 24.6143C9.18008 25.0427 9.89594 25.2082 10.6431 25.0475C11.8662 24.7843 12.3398 23.0006 10.9669 22.5153C9.59545 22.0305 8.80116 21.6486 8.22536 21.197C6.66972 19.9769 7.19808 17.0901 9.38289 16.464V16.0673C9.38289 15.5495 9.80263 15.1298 10.3204 15.1298C10.8381 15.1298 11.2578 15.5495 11.2578 16.0673V16.4021C12.3029 16.638 12.8075 17.2027 12.8544 17.2377C13.235 17.5887 13.2589 18.1818 12.9078 18.5624C12.5568 18.9429 11.9637 18.9668 11.5831 18.6158C10.0426 17.3098 8.38473 19.1203 9.63488 19.8964C10.178 20.2336 10.9802 20.5313 11.5917 20.7474C14.6828 21.8402 14.131 26.0097 11.2578 26.8271ZM16.0005 13.188H4.75084C4.2331 13.188 3.81337 12.7683 3.81337 12.2506C3.81337 11.7328 4.2331 11.3131 4.75084 11.3131H16.0005C16.5182 11.3131 16.938 11.7328 16.938 12.2506C16.938 12.7683 16.5182 13.188 16.0005 13.188Z" fill="#22C680"/>
<path d="M22.5 11.3756H24.4374V16.9379H22.5V11.3756Z" fill="black"/>
<path d="M31.0623 11.3756H26.3124V17.8754C26.3124 18.3932 25.8927 18.8129 25.3749 18.8129H22.5V30.1251H31.0623C31.58 30.1251 31.9997 29.7053 31.9997 29.1876V12.3131C31.9997 11.7953 31.58 11.3756 31.0623 11.3756Z" fill="black"/>
</svg>
