 <svg
                width="32"
                height="32"
                viewBox="0 0 32 32"
                fill="none"
                xmlns="http://www.w3.org/2000/svg"
              >
                <path
                  opacity="0.1"
                  fill-rule="evenodd"
                  clip-rule="evenodd"
                  d="M0 16C0 7.16344 7.16344 0 16 0C24.8366 0 32 7.16344 32 16C32 24.8366 24.8366 32 16 32C7.16344 32 0 24.8366 0 16Z"
                  fill="white"
                />
                <path
                  d="M18.9981 9.98875H20.6414V7.12675C20.3579 7.08775 19.3829 7 18.2474 7C15.8781 7 14.2551 8.49025 14.2551 11.2292V13.75H11.6406V16.9495H14.2551V25H17.4606V16.9503H19.9694L20.3676 13.7508H17.4599V11.5465C17.4606 10.6217 17.7096 9.98875 18.9981 9.98875Z"
                  fill="#FCFCFC"
                />
              </svg>
