<svg width="72" height="72" viewBox="0 0 72 72" fill="none" xmlns="http://www.w3.org/2000/svg">
<rect width="72" height="72" rx="36" fill="#F4F5F7"/>
<path d="M24.5 41.9375C24.5 39.6142 25.7232 37.5024 27.6504 36.3308C27.9596 32.6505 31.0537 29.75 34.8125 29.75C35.5195 29.75 36.2219 29.8555 36.895 30.06C37.8901 29.1017 39.1213 28.4253 40.4594 28.0982C39.3571 26.8064 37.7193 26 35.9375 26C33.9641 26 32.1466 26.9791 31.0515 28.5664C30.2587 28.1159 29.3603 27.875 28.4375 27.875C25.5082 27.875 23.125 30.2582 23.125 33.1875C23.125 33.3783 23.1353 33.5686 23.1557 33.7577C21.3019 34.396 20 36.1532 20 38.1875C20 40.7318 22.0379 42.8075 24.5668 42.8719C24.5231 42.5666 24.5 42.2547 24.5 41.9375Z" fill="black"/>
<path d="M48.2241 36.2247C48.2413 36.0446 48.25 35.8653 48.25 35.6875C48.25 32.4136 45.5864 29.75 42.3125 29.75C40.3391 29.75 38.5216 30.7291 37.4265 32.3164C36.6337 31.8659 35.7353 31.625 34.8125 31.625C31.8832 31.625 29.5 34.0082 29.5 36.9375C29.5 37.1283 29.5102 37.3186 29.5307 37.5077C27.6769 38.146 26.375 39.9032 26.375 41.9375C26.375 44.5222 28.4778 46.625 31.0625 46.625H46.6875C49.6168 46.625 52 44.2418 52 41.3125C52 38.9228 50.4336 36.8852 48.2241 36.2247Z" fill="#22C680"/>
</svg>
