<svg width="40" height="41" viewBox="0 0 40 41" fill="none" xmlns="http://www.w3.org/2000/svg">
<path d="M2.03148 20.5H4.71898V33.2656H6.06273V20.5H32.9377V33.2656H34.2815V20.5H36.969C37.0741 20.5 37.1778 20.4753 37.2717 20.428C37.3655 20.3806 37.447 20.3118 37.5094 20.2273C37.5719 20.1427 37.6136 20.0446 37.6313 19.941C37.649 19.8373 37.6421 19.731 37.6111 19.6305L34.9236 10.8961C34.8814 10.7588 34.7962 10.6387 34.6806 10.5533C34.5651 10.4679 34.4252 10.4219 34.2815 10.4219H32.2659V11.7656H33.7853L36.0593 19.1562H2.9412L5.21516 11.7656H6.73461V10.4219H4.71898C4.5753 10.4219 4.43541 10.4679 4.31984 10.5533C4.20426 10.6387 4.1191 10.7588 4.07684 10.8961L1.38934 19.6305C1.35841 19.731 1.3515 19.8373 1.36917 19.941C1.38683 20.0446 1.42857 20.1427 1.49103 20.2273C1.5535 20.3118 1.63493 20.3806 1.7288 20.428C1.82267 20.4753 1.92634 20.5 2.03148 20.5Z" fill="black"/>
<path d="M19.5002 29.9062H18.1565V31.25H19.5002V29.9062Z" fill="black"/>
<path d="M8.07837 25.2031V31.9219C8.07837 32.1001 8.14916 32.271 8.27516 32.397C8.40116 32.523 8.57205 32.5938 8.75024 32.5938H12.7815C12.9597 32.5938 13.1306 32.523 13.2566 32.397C13.3826 32.271 13.4534 32.1001 13.4534 31.9219V25.2031C13.4534 25.0249 13.3826 24.854 13.2566 24.728C13.1306 24.602 12.9597 24.5312 12.7815 24.5312H8.75024C8.57205 24.5312 8.40116 24.602 8.27516 24.728C8.14916 24.854 8.07837 25.0249 8.07837 25.2031ZM9.42212 31.25V29.9062H12.1096V31.25H9.42212ZM12.1096 25.875V28.5625H9.42212V25.875H12.1096Z" fill="black"/>
<path d="M25.5471 25.2031V31.9219C25.5471 32.1001 25.6179 32.271 25.7439 32.397C25.8699 32.523 26.0408 32.5938 26.219 32.5938H30.2502C30.4284 32.5938 30.5993 32.523 30.7253 32.397C30.8513 32.271 30.9221 32.1001 30.9221 31.9219V25.2031C30.9221 25.0249 30.8513 24.854 30.7253 24.728C30.5993 24.602 30.4284 24.5312 30.2502 24.5312H26.219C26.0408 24.5312 25.8699 24.602 25.7439 24.728C25.6179 24.854 25.5471 25.0249 25.5471 25.2031ZM26.8909 31.25V29.9062H29.5784V31.25H26.8909ZM29.5784 25.875V28.5625H26.8909V25.875H29.5784Z" fill="black"/>
<path d="M11.4377 21.8438H10.094V23.1875H11.4377V21.8438Z" fill="black"/>
<path d="M28.9065 21.8438H27.5627V23.1875H28.9065V21.8438Z" fill="black"/>
<path d="M7.40648 17.1406H31.594C31.6961 17.1406 31.7968 17.1174 31.8886 17.0726C31.9803 17.0278 32.0607 16.9627 32.1235 16.8822C32.1864 16.8018 32.23 16.708 32.2512 16.6081C32.2724 16.5083 32.2705 16.4049 32.2458 16.3058L29.5583 5.55582C29.5219 5.41045 29.4381 5.2814 29.32 5.18919C29.2019 5.09697 29.0563 5.04688 28.9065 5.04688H10.094C9.94414 5.04688 9.7986 5.09697 9.6805 5.18919C9.5624 5.2814 9.47851 5.41045 9.44217 5.55582L6.75467 16.3058C6.72991 16.4049 6.72806 16.5083 6.74924 16.6081C6.77042 16.708 6.81409 16.8018 6.87692 16.8822C6.93975 16.9627 7.0201 17.0278 7.11186 17.0726C7.20362 17.1174 7.30438 17.1406 7.40648 17.1406ZM22.567 11.7656H25.6258L26.1297 15.7969H22.819L22.567 11.7656ZM21.4725 15.7969H17.5279L17.7799 11.7656H21.2206L21.4725 15.7969ZM22.483 10.4219L22.2311 6.39062H24.9539L25.4578 10.4219H22.483ZM21.1366 10.4219H17.8639L18.1158 6.39062H20.8846L21.1366 10.4219ZM16.5174 10.4219H13.5425L14.0464 6.39062H16.7694L16.5174 10.4219ZM16.4335 11.7656L16.1815 15.7969H12.8707L13.3746 11.7656H16.4335ZM27.4839 15.7969L26.98 11.7656H29.7257L30.7335 15.7969H27.4839ZM29.3897 10.4219H26.8121L26.3082 6.39062H28.3819L29.3897 10.4219ZM10.6185 6.39062H12.6922L12.1883 10.4219H9.61073L10.6185 6.39062ZM9.27479 11.7656H12.0203L11.5164 15.7969H8.26698L9.27479 11.7656Z" fill="black"/>
<path d="M28.2346 1.68752C29.8846 1.68853 31.5092 2.0944 32.9657 2.86952C34.4223 3.64464 35.6665 4.76532 36.5891 6.13328C37.5117 7.50124 38.0845 9.07469 38.2573 10.7156C38.4302 12.3565 38.1977 14.0148 37.5804 15.5449L38.8259 16.0488C39.3769 14.6882 39.659 13.2336 39.6565 11.7656C39.6565 5.46765 34.5326 0.343765 28.2346 0.343765C25.3125 0.338959 22.5007 1.45889 20.3821 3.47134L21.3059 4.44699C23.1753 2.67132 25.6563 1.6832 28.2346 1.68752Z" fill="black"/>
<path d="M35.6251 33.9375C35.0887 33.9386 34.5603 34.0677 34.0838 34.3141C33.6073 34.5604 33.1965 34.9169 32.8854 35.354C32.3747 35.2325 31.8395 35.2633 31.3461 35.4427C30.8527 35.6221 30.4227 35.9422 30.1093 36.3634C29.7959 36.7846 29.6128 37.2884 29.5827 37.8126C29.5525 38.3367 29.6767 38.8582 29.9398 39.3125H26.6341L25.476 36.9964C25.4202 36.8848 25.3345 36.7909 25.2283 36.7253C25.1222 36.6598 24.9999 36.625 24.8751 36.625H23.5314V27.8906C23.5314 26.8215 23.1067 25.7961 22.3507 25.0401C21.5947 24.2841 20.5693 23.8594 19.5001 23.8594C18.431 23.8594 17.4056 24.2841 16.6496 25.0401C15.8936 25.7961 15.4689 26.8215 15.4689 27.8906V36.625H14.1251C14.0004 36.625 13.8781 36.6598 13.7719 36.7253C13.6658 36.7909 13.58 36.8848 13.5242 36.9964L12.3662 39.3125H9.06088C9.32378 38.8582 9.44779 38.3367 9.41759 37.8127C9.38738 37.2886 9.20428 36.7849 8.89091 36.3638C8.57755 35.9427 8.14766 35.6226 7.65437 35.4431C7.16108 35.2637 6.62601 35.2327 6.1153 35.354C5.7819 34.8837 5.33311 34.5071 4.81208 34.2605C4.29105 34.0139 3.71532 33.9055 3.14027 33.9457C2.56522 33.9859 2.0102 34.1735 1.52859 34.4903C1.04699 34.8071 0.655005 35.2425 0.39035 35.7546C0.125695 36.2667 -0.00272672 36.8383 0.017437 37.4144C0.0376006 37.9905 0.205672 38.5517 0.505483 39.0441C0.805294 39.5364 1.22676 39.9433 1.72933 40.2257C2.23191 40.508 2.79868 40.6563 3.37514 40.6562H35.6251C36.5161 40.6562 37.3706 40.3023 38.0006 39.6723C38.6306 39.0423 38.9845 38.1878 38.9845 37.2969C38.9845 36.4059 38.6306 35.5514 38.0006 34.9214C37.3706 34.2914 36.5161 33.9375 35.6251 33.9375ZM16.8126 27.8906C16.8126 27.1779 17.0958 26.4943 17.5998 25.9903C18.1038 25.4863 18.7874 25.2031 19.5001 25.2031C20.2129 25.2031 20.8965 25.4863 21.4005 25.9903C21.9045 26.4943 22.1876 27.1779 22.1876 27.8906V36.625H16.8126V27.8906ZM14.5404 37.9688H24.4599L25.1318 39.3125H13.8685L14.5404 37.9688ZM6.73451 39.3125H3.37514C3.01338 39.3125 2.65829 39.2151 2.34712 39.0306C2.03595 38.8461 1.78016 38.5813 1.60661 38.2639C1.43305 37.9465 1.34812 37.5882 1.36072 37.2267C1.37331 36.8651 1.48298 36.5137 1.67821 36.2091C1.87344 35.9045 2.14704 35.6581 2.4703 35.4958C2.79356 35.3334 3.15457 35.261 3.51545 35.2861C3.87633 35.3113 4.22378 35.4332 4.52135 35.6389C4.81892 35.8446 5.05564 36.1266 5.20667 36.4554C5.24457 36.5377 5.29873 36.6114 5.36588 36.6723C5.43303 36.7331 5.5118 36.7797 5.59743 36.8093C5.68307 36.8389 5.7738 36.8509 5.86418 36.8445C5.95457 36.8381 6.04273 36.8135 6.12336 36.7722C6.31236 36.6749 6.52195 36.6244 6.73451 36.625C7.0909 36.625 7.43269 36.7666 7.68469 37.0186C7.93669 37.2706 8.07826 37.6124 8.07826 37.9688C8.07826 38.3251 7.93669 38.6669 7.68469 38.9189C7.43269 39.1709 7.0909 39.3125 6.73451 39.3125ZM35.6251 39.3125H32.2658C31.9094 39.3125 31.5676 39.1709 31.3156 38.9189C31.0636 38.6669 30.922 38.3251 30.922 37.9688C30.922 37.6124 31.0636 37.2706 31.3156 37.0186C31.5676 36.7666 31.9094 36.625 32.2658 36.625C32.4783 36.6244 32.6879 36.6749 32.8769 36.7722C32.9576 36.8135 33.0457 36.8381 33.1361 36.8445C33.2265 36.8509 33.3172 36.8389 33.4028 36.8093C33.4885 36.7797 33.5672 36.7331 33.6344 36.6723C33.7015 36.6114 33.7557 36.5377 33.7936 36.4554C33.9446 36.1266 34.1814 35.8446 34.4789 35.6389C34.7765 35.4332 35.124 35.3113 35.4848 35.2861C35.8457 35.261 36.2067 35.3334 36.53 35.4958C36.8532 35.6581 37.1268 35.9045 37.3221 36.2091C37.5173 36.5137 37.627 36.8651 37.6396 37.2267C37.6522 37.5882 37.5672 37.9465 37.3937 38.2639C37.2201 38.5813 36.9643 38.8461 36.6532 39.0306C36.342 39.2151 35.9869 39.3125 35.6251 39.3125Z" fill="black"/>
</svg>
