<svg width="72" height="72" viewBox="0 0 72 72" fill="none" xmlns="http://www.w3.org/2000/svg">
<rect width="72" height="72" rx="36" fill="#F4F5F7"/>
<path d="M51.7267 35.2875L42.1272 24.6214C41.9224 24.3953 41.6366 24.2673 41.3337 24.2673H34.934C34.5138 24.2673 34.1319 24.5148 33.9591 24.8987C33.7885 25.2848 33.8589 25.735 34.1405 26.0464L43.0978 36L34.1405 45.9515C33.8589 46.265 33.7863 46.7152 33.9591 47.0991C34.1319 47.4852 34.5138 47.7327 34.934 47.7327H41.3337C41.6366 47.7327 41.9224 47.6026 42.1272 47.3807L51.7267 36.7146C52.0915 36.3093 52.0915 35.6907 51.7267 35.2875Z" fill="#22C680"/>
<path d="M37.8605 35.2875L28.261 24.6214C28.0562 24.3953 27.7704 24.2673 27.4675 24.2673H21.0678C20.6476 24.2673 20.2657 24.5148 20.0929 24.8987C19.9223 25.2848 19.9927 25.735 20.2743 26.0464L29.2316 36L20.2743 45.9515C19.9927 46.265 19.9201 46.7152 20.0929 47.0991C20.2657 47.4852 20.6476 47.7327 21.0678 47.7327H27.4675C27.7704 47.7327 28.0562 47.6026 28.261 47.3807L37.8605 36.7146C38.2253 36.3093 38.2253 35.6907 37.8605 35.2875Z" fill="black"/>
</svg>
