<svg width="72" height="73" viewBox="0 0 72 73" fill="none" xmlns="http://www.w3.org/2000/svg">
<rect y="0.5" width="72" height="72" rx="36" fill="#F4F5F7"/>
<path d="M51.3333 50.6667H50.6666V31.3333C50.6666 30.9653 50.3679 30.6666 49.9999 30.6666H45.9999C45.6319 30.6666 45.3333 30.9653 45.3333 31.3333V50.6666H42.6666V39.3333C42.6666 38.9653 42.3679 38.6666 41.9999 38.6666H37.9999C37.6319 38.6666 37.3332 38.9653 37.3332 39.3333V50.6666H34.6665V36.6666C34.6665 36.2986 34.3678 35.9999 33.9998 35.9999H29.9998C29.6318 35.9999 29.3331 36.2986 29.3331 36.6666V50.6666H26.6664V43.3333C26.6664 42.9653 26.3678 42.6666 25.9998 42.6666H22C21.632 42.6666 21.3333 42.9653 21.3333 43.3333V50.6666H20.6667C20.2987 50.6667 20 50.9653 20 51.3333C20 51.7013 20.2987 52 20.6667 52H22H26H30H34H38H42H46H50H51.3333C51.7013 52 52 51.7013 52 51.3333C52 50.9653 51.7013 50.6667 51.3333 50.6667Z" fill="#22C680"/>
<path d="M47.9997 20C46.529 20 45.333 21.196 45.333 22.6667C45.333 23.16 45.477 23.616 45.7103 24.0134L41.3463 28.3774C40.949 28.144 40.493 28 39.9997 28C39.1637 28 38.425 28.3947 37.9357 28.9987L34.6597 28.064C34.6597 28.0427 34.6664 28.0227 34.6664 28C34.6664 26.5293 33.4704 25.3333 31.9997 25.3333C30.529 25.3333 29.333 26.5293 29.333 28C29.333 28.388 29.4197 28.7533 29.569 29.0853L25.4023 32.4093C24.9944 32.1533 24.5157 32 23.9997 32C22.529 32 21.333 33.196 21.333 34.6667C21.333 36.1374 22.529 37.3334 23.9997 37.3334C25.4704 37.3334 26.6664 36.1374 26.6664 34.6667C26.6664 34.1987 26.5344 33.764 26.3211 33.3814L30.4051 30.1241C30.8518 30.4601 31.3998 30.6667 31.9998 30.6667C32.9771 30.6667 33.8251 30.1321 34.2891 29.3454L37.3784 30.2268C37.3531 30.3708 37.3331 30.5161 37.3331 30.6667C37.3331 32.1374 38.5291 33.3334 39.9998 33.3334C41.4704 33.3334 42.6664 32.1374 42.6664 30.6667C42.6664 30.1734 42.5224 29.7174 42.2891 29.3201L46.6544 24.9548C47.0504 25.1894 47.5064 25.3334 47.9998 25.3334C49.4704 25.3334 50.6664 24.1374 50.6664 22.6667C50.6664 21.196 49.4704 20 47.9997 20Z" fill="black"/>
</svg>
