<svg width="72" height="73" viewBox="0 0 72 73" fill="none" xmlns="http://www.w3.org/2000/svg">
<rect y="0.5" width="72" height="72" rx="36" fill="#F4F5F7"/>
<g clip-path="url(#clip0)">
<path d="M20.9385 49.1246H47.2504C47.7686 49.1246 48.1879 48.7053 48.1879 48.1872C48.1879 47.669 47.7686 47.2497 47.2504 47.2497H46.313V46.3122C46.313 45.794 45.8937 45.3747 45.3755 45.3747H42.563V43.4998H40.6881V45.3747H37.8756C37.3575 45.3747 36.9381 45.794 36.9381 46.3122V47.2497H31.3133V46.3122C31.3133 45.794 30.894 45.3747 30.3758 45.3747H27.5633V43.4998H25.6884V45.3747H22.8134C22.2952 45.3747 21.8759 45.794 21.8759 46.3122V47.2497H20.9385C20.4203 47.2497 20.001 47.669 20.001 48.1872C20.001 48.7053 20.4203 49.1246 20.9385 49.1246Z" fill="black"/>
<path d="M28.0951 29.7501H22.4705L21.3594 34.75H26.984L28.0951 29.7501Z" fill="#FFCE00"/>
<path d="M34.5304 34.75L35.6415 29.7501H30.0164L28.9053 34.75H34.5304Z" fill="#FFCE00"/>
<path d="M36.9154 24.016C36.9767 23.7386 36.9089 23.4484 36.7314 23.2259C36.5529 23.0043 36.2846 22.8752 35.9999 22.8752H31.5438L30.4326 27.8751H36.0578L36.9154 24.016Z" fill="#FFCE00"/>
<path d="M20.938 41.6249H25.456L26.5672 36.625H20.9425L20.0224 40.4842C19.8935 41.0675 20.3365 41.6249 20.938 41.6249Z" fill="#FFCE00"/>
<path d="M29.6225 22.8754H24.7501C24.3107 22.8754 23.9298 23.1802 23.8346 23.6096L22.8867 27.8753H28.5114L29.6225 22.8754Z" fill="#FFCE00"/>
<path d="M27.377 41.6249H32.2497C32.6892 41.6249 33.07 41.32 33.1652 40.8907L34.1131 36.625H28.488L27.377 41.6249Z" fill="#FFCE00"/>
<path d="M41.983 34.75L43.0941 29.7501H37.4695L36.3584 34.75H41.983Z" fill="#FFCE00"/>
<path d="M49.5304 34.75L50.6415 29.7501H45.0164L43.9053 34.75H49.5304Z" fill="#FFCE00"/>
<path d="M51.9779 24.016C52.0392 23.7386 51.9714 23.4484 51.7939 23.2259C51.6154 23.0043 51.3471 22.8752 51.0624 22.8752H46.5438L45.4326 27.8751H51.0578L51.9779 24.016Z" fill="#FFCE00"/>
<path d="M35.085 40.4842C34.956 41.0675 35.3989 41.6249 36.0004 41.6249H40.456L41.5672 36.625H35.9426L35.085 40.4842Z" fill="#FFCE00"/>
<path d="M44.6226 22.8752H39.7501C39.3107 22.8752 38.9298 23.1801 38.8346 23.6095L37.8867 27.8751H43.5114L44.6226 22.8752Z" fill="#FFCE00"/>
<path d="M42.377 41.6249H47.2497C47.6892 41.6249 48.07 41.32 48.1652 40.8907L49.1131 36.625H43.488L42.377 41.6249Z" fill="#FFCE00"/>
</g>
<defs>
<clipPath id="clip0">
<rect width="32" height="32" fill="white" transform="translate(20 20)"/>
</clipPath>
</defs>
</svg>
