<svg width="44" height="44" viewBox="0 0 44 44" fill="none" xmlns="http://www.w3.org/2000/svg">
<path d="M35.9997 20.8525H19.0161V25.4427H35.9997V20.8525Z" fill="black"/>
<path d="M35.3872 27.994C33.276 33.0082 27.4738 36 22.203 36C22.0849 36 21.9446 36 21.7822 35.9986C15.2491 35.8923 8 31.2372 8 23.8632V8.25064C8 8.25064 19.9367 8 22.203 8C28.1456 8 34.7598 11.8005 36 18.0146H28.8542C27.2966 15.8365 24.4102 14.3384 22.107 14.3384C18.785 14.3384 15.1162 17.1521 15.1162 20.9317V23.069C15.1162 25.064 16.1424 26.7897 17.5966 27.9747V27.994H17.6186C18.9105 29.0418 20.5494 29.6616 22.107 29.6616C23.5981 29.6616 25.3404 29.0311 26.802 27.994H35.3872Z" fill="#22C680"/>
</svg>
