<svg width="72" height="73" viewBox="0 0 72 73" fill="none" xmlns="http://www.w3.org/2000/svg">
<rect y="0.5" width="72" height="72" rx="36" fill="#F4F5F7"/>
<path d="M34.8525 20L34.8525 36.9836L39.4427 36.9836L39.4427 20L34.8525 20Z" fill="black"/>
<path d="M41.994 24.6128C47.0082 26.724 50 32.5262 50 37.797C50 37.9151 50 38.0554 49.9986 38.2178C49.8923 44.7509 45.2372 52 37.8632 52L22.2506 52C22.2506 52 22 40.0633 22 37.797C22 31.8544 25.8005 25.2402 32.0146 24L32.0146 31.1458C29.8365 32.7034 28.3384 35.5898 28.3384 37.893C28.3384 41.215 31.1521 44.8838 34.9317 44.8838L37.069 44.8838C39.064 44.8838 40.7897 43.8576 41.9747 42.4034L41.994 42.4034L41.994 42.3814C43.0418 41.0895 43.6616 39.4506 43.6616 37.893C43.6616 36.4019 43.0311 34.6596 41.994 33.198L41.994 24.6128Z" fill="#22C680"/>
</svg>
