 <svg
                  width=""
                  height=""
                  viewBox="0 0 358 256"
                  fill="none"
                  xmlns="http://www.w3.org/2000/svg"
                >
                  <path
                    d="M248.823 62.8094C252.788 62.8094 256 59.596 256 55.6324V7.78565C256 3.82203 252.788 0.608643 248.823 0.608643H200.976C197.012 0.608643 193.799 3.82203 193.799 7.78565V24.532H62.2007V7.78565C62.2007 3.82203 58.9883 0.608643 55.0237 0.608643H7.17701C3.21243 0.608643 0 3.82203 0 7.78565V55.6324C0 59.596 3.21243 62.8094 7.17701 62.8094H23.9234V193.192H7.17701C3.21243 193.192 0 196.405 0 200.369V248.215C0 252.179 3.21243 255.392 7.17701 255.392H55.0237C58.9883 255.392 62.2007 252.179 62.2007 248.215V231.469H193.799V248.215C193.799 252.179 197.012 255.392 200.976 255.392H248.823C252.788 255.392 256 252.179 256 248.215V200.369C256 196.405 252.788 193.192 248.823 193.192H232.077V62.8094H248.823ZM208.153 14.9627H241.646V48.4554H208.153V14.9627ZM14.354 14.9627H47.8467V48.4554H14.354V14.9627ZM47.8467 241.038H14.354V207.546H47.8467V241.038ZM241.646 241.038H208.153V207.546H241.646V241.038ZM217.723 193.192H200.976C197.012 193.192 193.799 196.405 193.799 200.369V217.115H62.2007V200.369C62.2007 196.405 58.9883 193.192 55.0237 193.192H38.2774V62.8094H55.0237C58.9883 62.8094 62.2007 59.596 62.2007 55.6324V38.886H193.799V55.6324C193.799 59.596 197.012 62.8094 200.976 62.8094H217.723V193.192Z"
                    fill="#222220"
                  />
                  <path
                    d="M356.696 136.505L331.014 110.823L343.61 98.2277C344.701 97.1364 345.15 95.5579 344.795 94.0557C344.44 92.5536 343.333 91.3423 341.869 90.8542L266.297 65.6635C264.697 65.13 262.933 65.5465 261.74 66.7394C260.547 67.9322 260.131 69.6963 260.664 71.2964L285.855 146.869C286.343 148.333 287.555 149.44 289.056 149.794C290.558 150.15 292.137 149.701 293.228 148.609L305.824 136.014L331.506 161.696C332.376 162.565 333.515 163 334.655 163C335.794 163 336.934 162.566 337.803 161.696L356.696 142.803C358.436 141.064 358.436 138.244 356.696 136.505ZM334.654 152.249L308.972 126.567C307.234 124.828 304.414 124.828 302.675 126.567L292.026 137.217L271.93 76.9293L332.217 97.0251L321.568 107.674C319.83 109.412 319.829 112.233 321.568 113.972L347.25 139.654L334.654 152.249Z"
                    fill="#22C680"
                  />
                </svg>