<svg width="48" height="48" viewBox="0 0 48 48" fill="none" xmlns="http://www.w3.org/2000/svg">
<path d="M25 8C22.9318 8 21.25 9.68181 21.25 11.75C21.25 13.8182 22.9318 15.5 25 15.5C27.0682 15.5 28.75 13.8182 28.75 11.75C28.75 9.68181 27.0682 8 25 8Z" fill="black"/>
<path d="M38.125 22.1875V23.125C38.125 24.2847 37.1082 25.1968 35.8333 24.9346C34.5837 20.6458 30.6243 17.5 25.9375 17.5H19.6739C19.4129 17.5 19.1676 17.3911 19.0009 17.2016C18.1157 16.1999 16.8403 15.625 15.5 15.625H12.6875C12.0797 15.625 11.6337 16.1933 11.7766 16.7841L12.7259 20.6943C12.032 21.4194 11.4534 22.2342 10.9992 23.125C9.12175 23.125 8 24.4636 8 25.9375V28.7161C8 30.4961 9.378 31.1459 10.8436 32.1814C11.4241 33.4219 12.2343 34.5196 13.2561 35.4489C13.3943 35.5734 13.625 35.8361 13.625 36.1904V38.4014C13.625 39.2831 14.3419 40 15.2235 40H18.589C19.4656 40 20.1875 39.4069 20.1875 38.125H25.9375C25.9375 39.4069 26.6594 40 27.536 40H30.9015C31.7831 40 32.5 39.2831 32.5 38.4015C32.5 36.9847 32.3395 36.0194 33.3286 35.0049C35.1422 33.1402 36.25 30.5972 36.25 27.8125C36.25 27.4946 36.2306 27.1812 36.2022 26.8706C36.2199 26.8708 36.2378 26.8759 36.2554 26.8759C38.3096 26.8759 40 25.2051 40 23.125V22.1875C40 20.9517 38.125 20.9466 38.125 22.1875ZM14.5625 25.9375C14.0448 25.9375 13.625 25.5177 13.625 25C13.625 24.4821 14.0448 24.0625 14.5625 24.0625C15.0802 24.0625 15.5 24.4821 15.5 25C15.5 25.5177 15.0802 25.9375 14.5625 25.9375ZM25.9375 23.125H21.6739C20.4381 23.125 20.433 21.25 21.6739 21.25H25.9375C27.1733 21.25 27.1784 23.125 25.9375 23.125Z" fill="#FFCE00"/>
</svg>
