<svg width="64" height="64" viewBox="0 0 64 64" fill="none" xmlns="http://www.w3.org/2000/svg">
<g clip-path="url(#clip0)">
<path d="M33.8751 37.7781V26.2919C36.5377 26.1157 41.3233 25.3189 44.6254 22.0166C49.3197 17.3221 48.9521 9.62534 48.9342 9.29997C48.8816 8.34573 48.1197 7.58375 47.1654 7.53112C46.8402 7.513 39.1434 7.14551 34.449 11.8399C33.9495 12.3394 33.5079 12.8732 33.1165 13.428C32.4287 10.6644 31.1363 7.57687 28.7203 5.16092C23.113 -0.446361 13.8858 -0.00549358 13.496 0.016256C12.5417 0.0688801 11.7797 0.830867 11.7271 1.7851C11.7056 2.17522 11.2645 11.4024 16.8719 17.0098C20.9799 21.1179 27.0298 21.9795 30.1252 22.1381V37.7781C30.746 37.7083 31.372 37.6723 32.0001 37.6723C32.6284 37.6723 33.2542 37.7085 33.8751 37.7781Z" fill="#22C680"/>
<path d="M47.0622 48.9535C46.0538 48.9535 45.0608 49.1142 44.1162 49.4261C43.2691 47.4479 41.9386 45.6828 40.2457 44.3222C37.9189 42.4522 34.9906 41.4224 32.0002 41.4224C29.0098 41.4224 26.0815 42.4522 23.7547 44.3222C22.0617 45.6828 20.7312 47.4479 19.8841 49.4261C18.9395 49.1142 17.9464 48.9535 16.9382 48.9535C11.7518 48.9535 7.53223 53.173 7.53223 58.3596V62.1251C7.53223 63.1606 8.37171 64.0001 9.40719 64.0001H54.593C55.6285 64.0001 56.468 63.1606 56.468 62.1251V58.3596C56.4681 53.173 52.2487 48.9535 47.0622 48.9535Z" fill="black"/>
</g>
<defs>
<clipPath id="clip0">
<rect width="64" height="64" fill="white"/>
</clipPath>
</defs>
</svg>
