<svg width="30" height="32" viewBox="0 0 30 32" fill="none" xmlns="http://www.w3.org/2000/svg">
<path d="M9.37524 5.68752H10.3127V7.62502C10.3127 8.1432 10.7321 8.56252 11.2502 8.56252H15.0002C15.5184 8.56252 15.9377 8.1432 15.9377 7.62502V5.68752H16.8752C17.2542 5.68752 17.5967 5.45958 17.7413 5.10889C17.8869 4.75827 17.8063 4.35539 17.5381 4.08714L13.7881 0.274641C13.4219 -0.0915469 12.8286 -0.0915469 12.4624 0.274641L8.71236 4.08714C8.44411 4.35539 8.36355 4.7582 8.50911 5.10889C8.6538 5.45958 8.99624 5.68752 9.37524 5.68752Z" fill="black"/>
<path d="M21.5625 17C17.4203 17 14.0625 20.3578 14.0625 24.5C14.0625 28.6421 17.4203 32 21.5625 32C25.7047 32 29.0625 28.6421 29.0625 24.5C29.0625 20.3578 25.7047 17 21.5625 17ZM23.1334 27.8739C22.9304 27.9754 22.7175 28.0554 22.4997 28.1159V28.3749C22.4997 28.8927 22.0799 29.3124 21.5622 29.3124C21.0444 29.3124 20.6247 28.8927 20.6247 28.3749V28.1452C20.2344 28.0469 19.8705 27.8818 19.5622 27.6506C19.148 27.3399 19.064 26.7523 19.3747 26.3381C19.6854 25.9239 20.273 25.8399 20.6872 26.1506C21.0622 26.4318 21.7834 26.4527 22.2949 26.1969C22.5004 26.0941 22.6114 25.9704 22.6114 25.9062C22.6114 25.794 22.6114 25.7767 22.4866 25.7101C22.242 25.5796 21.8095 25.4993 21.3912 25.4217C20.8328 25.3181 20.2553 25.211 19.7549 24.9439C19.0243 24.5539 18.638 23.9141 18.638 23.0937C18.638 22.2723 19.1306 21.5549 19.9894 21.1256C20.1929 21.0238 20.4063 20.9432 20.6247 20.8826V20.6249C20.6247 20.1072 21.0444 19.6874 21.5622 19.6874C22.0799 19.6874 22.4997 20.1072 22.4997 20.6249V20.8545C22.89 20.9528 23.2539 21.1181 23.5622 21.3493C23.9764 21.66 24.0604 22.2476 23.7497 22.6618C23.439 23.076 22.8515 23.16 22.4372 22.8493C22.0616 22.5676 21.3398 22.5468 20.8279 22.8026C20.6211 22.9059 20.513 23.0272 20.513 23.0936C20.513 23.2059 20.513 23.2231 20.6378 23.2897C20.8824 23.4203 21.3149 23.5006 21.7332 23.5781C22.2916 23.6817 22.8691 23.7889 23.3695 24.0559C24.1001 24.4459 24.4864 25.0857 24.4864 25.9062C24.4864 26.7268 23.9933 27.444 23.1334 27.8739Z" fill="black"/>
<path d="M5.625 13.25H22.5C23.0177 13.25 23.4375 12.8303 23.4375 12.3125V11.375C23.4375 10.8572 23.0177 10.4375 22.5 10.4375H5.625C5.10725 10.4375 4.6875 10.8572 4.6875 11.375V12.3125C4.6875 12.8303 5.10725 13.25 5.625 13.25Z" fill="#FFCE00"/>
<path d="M2.8125 30.125V31.0625C2.8125 31.5803 3.23225 32 3.75 32H15.9955C14.9784 31.2427 14.1332 30.2874 13.4916 29.1875H3.75C3.23225 29.1875 2.8125 29.6072 2.8125 30.125Z" fill="#FFCE00"/>
<path d="M2.8125 20.75V21.6875C2.8125 22.2053 3.23225 22.625 3.75 22.625H12.377C12.5834 21.612 12.9864 20.6787 13.4916 19.8125H3.75C3.23225 19.8125 2.8125 20.2322 2.8125 20.75Z" fill="#FFCE00"/>
<path d="M1.875 27.3125H12.6662C12.3825 26.4189 12.1875 25.4862 12.1875 24.5H1.875C1.35725 24.5 0.9375 24.9197 0.9375 25.4375V26.375C0.9375 26.8928 1.35725 27.3125 1.875 27.3125Z" fill="#FFCE00"/>
<path d="M1.875 17.9375H14.8843C16.5863 16.2057 18.9484 15.125 21.5625 15.125H1.875C1.35725 15.125 0.9375 15.5447 0.9375 16.0625V17C0.9375 17.5178 1.35725 17.9375 1.875 17.9375Z" fill="#FFCE00"/>
</svg>
