<svg width="80" height="80" viewBox="0 0 80 80" fill="none" xmlns="http://www.w3.org/2000/svg">
<g clip-path="url(#clip0)">
<path d="M28.7505 19.375H30.6255V23.25C30.6255 24.2864 31.4641 25.125 32.5005 25.125H40.0005C41.0369 25.125 41.8755 24.2864 41.8755 23.25V19.375H43.7505C44.5085 19.375 45.1934 18.9191 45.4826 18.2177C45.7737 17.5165 45.6126 16.7107 45.0761 16.1742L37.5761 8.54924C36.8437 7.81686 35.6571 7.81686 34.9247 8.54924L27.4247 16.1742C26.8882 16.7107 26.7271 17.5164 27.0182 18.2177C27.3076 18.9191 27.9925 19.375 28.7505 19.375Z" fill="black"/>
<path d="M53.125 42C44.8406 42 38.125 48.7156 38.125 57C38.125 65.2841 44.8406 72 53.125 72C61.4094 72 68.125 65.2841 68.125 57C68.125 48.7156 61.4094 42 53.125 42ZM56.2669 63.7479C55.8608 63.9509 55.435 64.1107 54.9994 64.2317V64.7499C54.9994 65.7854 54.1599 66.6249 53.1244 66.6249C52.0889 66.6249 51.2494 65.7854 51.2494 64.7499V64.2904C50.4689 64.0939 49.741 63.7635 49.1244 63.3011C48.296 62.6799 48.128 61.5046 48.7494 60.6761C49.3707 59.8479 50.546 59.6797 51.3744 60.3011C52.1244 60.8636 53.5669 60.9054 54.5897 60.3939C55.0009 60.1882 55.2228 59.9407 55.2228 59.8124C55.2228 59.588 55.2228 59.5534 54.9733 59.4202C54.484 59.1591 53.619 58.9986 52.7824 58.8435C51.6655 58.6362 50.5106 58.422 49.5099 57.8879C48.0485 57.1079 47.276 55.8282 47.276 54.1874C47.276 52.5446 48.2611 51.1099 49.9787 50.2511C50.3859 50.0475 50.8126 49.8864 51.2494 49.7652V49.2499C51.2494 48.2144 52.0889 47.3749 53.1244 47.3749C54.1599 47.3749 54.9994 48.2144 54.9994 49.2499V49.709C55.78 49.9056 56.5077 50.2362 57.1244 50.6986C57.9529 51.32 58.1207 52.4952 57.4994 53.3236C56.878 54.152 55.703 54.32 54.8744 53.6986C54.1232 53.1352 52.6795 53.0935 51.6558 53.6051C51.2423 53.8119 51.026 54.0545 51.026 54.1872C51.026 54.4117 51.026 54.4462 51.2755 54.5795C51.7648 54.8406 52.6299 55.0011 53.4664 55.1562C54.5832 55.3635 55.7381 55.5777 56.739 56.1119C58.2002 56.8919 58.9728 58.1715 58.9728 59.8124C58.9729 61.4536 57.9865 62.888 56.2669 63.7479Z" fill="black"/>
<path d="M21.25 34.5H55C56.0355 34.5 56.875 33.6605 56.875 32.625V30.75C56.875 29.7145 56.0355 28.875 55 28.875H21.25C20.2145 28.875 19.375 29.7145 19.375 30.75V32.625C19.375 33.6605 20.2145 34.5 21.25 34.5Z" fill="#FFCE00"/>
<path d="M15.625 68.25V70.125C15.625 71.1605 16.4645 72 17.5 72H41.991C39.9569 70.4855 38.2664 68.5747 36.9832 66.375H17.5C16.4645 66.375 15.625 67.2145 15.625 68.25Z" fill="#FFCE00"/>
<path d="M15.625 49.5V51.375C15.625 52.4105 16.4645 53.25 17.5 53.25H34.754C35.1669 51.224 35.9727 49.3574 36.9832 47.625H17.5C16.4645 47.625 15.625 48.4645 15.625 49.5Z" fill="#FFCE00"/>
<path d="M13.75 62.625H35.3324C34.765 60.8379 34.375 58.9725 34.375 57H13.75C12.7145 57 11.875 57.8395 11.875 58.875V60.75C11.875 61.7855 12.7145 62.625 13.75 62.625Z" fill="#FFCE00"/>
<path d="M13.75 43.875H39.7686C43.1725 40.4114 47.8969 38.25 53.125 38.25H13.75C12.7145 38.25 11.875 39.0895 11.875 40.125V42C11.875 43.0355 12.7145 43.875 13.75 43.875Z" fill="#FFCE00"/>
</g>
<defs>
<clipPath id="clip0">
<rect width="64" height="64" fill="white" transform="translate(8 8)"/>
</clipPath>
</defs>
</svg>
